<?xml version="1.0" standalone="no"?>
<!DOCTYPE svg PUBLIC "-//W3C//DTD SVG 1.1//EN" "http://www.w3.org/Graphics/SVG/1.1/DTD/svg11.dtd" >
<svg>
<font id="Typeface" horiz-adv-x="27" >
<font-face units-per-em="100" ascent="80" descent="-20" />
<glyph unicode="!" horiz-adv-x="26.66016" d="M9.52148 16.90332 C11.42578 16.90332 15.23437 16.90332 17.13867 16.90332 C17.28515 28.6709 17.57812 52.20605 17.72461 63.97363 C15.52735 63.97363 11.13281 63.97363 8.93555 63.97363 C9.08203 52.20605 9.375 28.6709 9.52148 16.90332 zM13.33008 -6.97363 Q15.72266 -6.97363 17.30957 -5.3623 Q18.89648 -3.75097 18.89648 -1.40723 Q18.89648 0.98535 17.30957 2.57227 Q15.72266 4.15918 13.33008 4.15918 Q10.98633 4.15918 9.375 2.57227 Q7.76367 0.98535 7.76367 -1.40723 Q7.76367 -3.75097 9.375 -5.3623 Q10.98633 -6.97363 13.33008 -6.97363 z" />
<glyph unicode="$" horiz-adv-x="60.44922" d="M30.37109 -5.7041 Q36.71875 -5.7041 42.13867 -3.50684 Q47.55859 -1.30957 50.87891 2.98731 Q54.19922 7.28418 54.19922 13.58301 C54.19922 13.59929 54.19922 13.61963 54.19922 13.63184 Q54.19922 21.34668 49.12109 25.61914 Q44.04297 29.8916 34.61914 32.1377 C32.19401 32.72364 29.1626 33.45606 27.34375 33.89551 Q20.99609 35.45801 18.45703 38.11915 Q15.91797 40.78028 15.91797 44.34473 C15.91797 44.36101 15.91797 44.38135 15.91797 44.39356 Q15.91797 47.0791 17.55371 49.52051 Q19.18945 51.96192 22.41211 53.52442 Q25.63477 55.08692 30.37109 55.08692 Q34.375 55.08692 37.52441 53.74415 Q40.67383 52.40137 42.62695 49.86231 Q44.58008 47.37207 44.9707 43.85645 C44.98698 43.70996 45.00732 43.52685 45.01953 43.41699 C47.14355 43.41699 51.3916 43.41699 53.51562 43.41699 C53.50342 43.6001 53.47901 43.96631 53.4668 44.14942 Q53.125 49.71582 50 53.89062 Q46.875 58.06543 41.74805 60.36035 Q36.66992 62.7041 30.37109 62.7041 Q23.82812 62.7041 18.62793 60.38477 Q13.42773 58.06543 10.40039 53.86621 Q7.42187 49.66699 7.42188 43.9541 C7.42188 43.93783 7.42188 43.91748 7.42188 43.90528 Q7.42187 36.67871 12.20703 32.38184 Q16.99219 28.08496 26.12305 25.8877 C28.54818 25.30176 31.57959 24.56934 33.39844 24.12989 Q40.625 22.37207 43.16406 19.73535 Q45.70312 17.09863 45.70312 13.09473 C45.70312 13.07845 45.70312 13.05811 45.70312 13.0459 Q45.70312 9.96973 44.18945 7.43066 Q42.67578 4.8916 39.30664 3.37793 Q35.98633 1.91309 30.46875 1.91309 Q25.09766 1.91309 21.72852 3.47559 Q18.35938 5.03809 16.55273 7.62598 Q14.79492 10.2627 14.25781 13.3877 C14.22526 13.58301 14.18457 13.82715 14.16016 13.97363 C12.03614 13.97363 7.78809 13.97363 5.66406 13.97363 C5.67627 13.80273 5.70068 13.46094 5.71289 13.29004 Q6.15234 7.38184 9.57031 3.10938 Q12.98828 -1.16308 18.4082 -3.45801 Q23.87695 -5.7041 30.37109 -5.7041 zM27.24609 -13.80957 C28.71094 -13.80957 31.64062 -13.80957 33.10547 -13.80957 C33.10547 7.34521 33.10547 49.65478 33.10547 70.80957 C31.64062 70.80957 28.71094 70.80957 27.24609 70.80957 C27.24609 49.65478 27.24609 7.34521 27.24609 -13.80957 z" />
<glyph unicode="&#x26;" horiz-adv-x="66.89453" d="M56.68945 -6.72949 C59.375 -6.72949 64.74609 -6.72949 67.43164 -6.72949 C67.43164 -6.65625 67.43164 -6.50976 67.43164 -6.43652 C57.8125 3.85401 38.57422 24.43506 28.95508 34.72559 Q25.92773 38.0459 23.9502 40.41407 Q21.97266 42.78223 20.99609 44.73535 Q20.06836 46.73731 20.06836 48.78809 C20.06836 48.80437 20.06836 48.82471 20.06836 48.83692 Q20.06836 51.52246 21.28906 53.59766 Q22.50977 55.67285 24.6582 56.84473 Q26.85547 58.0166 29.58984 58.0166 Q32.42188 58.0166 34.57031 56.86914 Q36.71875 55.72168 37.93945 53.6709 Q39.16016 51.62012 39.16016 48.93457 C39.16016 48.91829 39.16016 48.89795 39.16016 48.88574 Q39.16016 44.97949 36.08398 41.85449 Q33.00781 38.72949 24.85352 34.67676 C26.44857 33.03288 28.44238 30.97803 29.63867 29.74512 Q39.45312 34.77442 43.4082 39.19336 Q47.36328 43.61231 47.36328 49.22754 C47.36328 49.24382 47.36328 49.26416 47.36328 49.27637 Q47.36328 53.86621 45.04395 57.38184 Q42.72461 60.89746 38.7207 62.89942 Q34.7168 64.90137 29.54102 64.90137 Q24.46289 64.90137 20.43457 62.85059 Q16.40625 60.79981 14.0625 57.23535 Q11.76758 53.71973 11.76758 49.22754 C11.76758 49.21126 11.76758 49.19092 11.76758 49.17871 Q11.81641 46.54199 12.79297 44.00293 Q13.76953 41.46387 15.86914 38.58301 Q17.96875 35.75098 21.28906 32.08887 C33.08919 19.14942 47.83935 2.9751 56.68945 -6.72949 zM27.63672 -7.90137 Q35.69336 -7.90137 42.06543 -5.06934 Q48.4375 -2.2373 52.73438 3.08496 Q56.78711 8.11426 58.98438 15.16993 Q61.18164 22.22559 61.18164 31.01465 C61.18164 31.7308 61.18164 32.62598 61.18164 33.16309 C59.15527 33.16309 55.10254 33.16309 53.07617 33.16309 C53.07617 32.63819 53.07617 31.58838 53.07617 31.06348 Q53.07617 24.12989 51.66016 18.49024 Q50.24414 12.85059 47.46094 8.79785 Q45.41016 5.77051 42.60254 3.6709 Q39.79492 1.57129 36.23047 0.49707 Q32.71484 -0.57715 28.41797 -0.57715 Q23.73047 -0.57715 20.19043 1.08301 Q16.65039 2.74317 14.64844 5.72168 Q12.69531 8.7002 12.69531 12.60645 C12.69531 12.62273 12.69531 12.64307 12.69531 12.65528 Q12.69531 16.70801 15.06347 19.9795 Q17.43164 23.25098 22.99805 26.42481 C24.80469 27.4502 27.06299 28.73194 28.41797 29.50098 C27.20947 30.78272 24.79248 33.34619 23.58398 34.62793 C22.15576 33.87109 19.29931 32.35743 17.87109 31.60059 Q10.9375 27.88965 7.47071 23.1045 Q4.00391 18.31934 4.00391 12.06934 C4.00391 12.05306 4.00391 12.03272 4.00391 12.02051 Q4.00391 6.16113 7.00684 1.66895 Q10.00977 -2.82324 15.33203 -5.3623 Q20.70312 -7.90136 27.63672 -7.90137 z" />
<glyph unicode="(" horiz-adv-x="32.22656" d="M23.14453 -15.27441 C24.92676 -15.27441 28.49121 -15.27441 30.27344 -15.27441 Q27.63672 -12.19824 25.39062 -7.31543 Q23.14453 -2.43262 21.43555 3.52441 Q19.77539 9.53027 18.84766 15.97559 Q17.91992 22.4209 17.91992 28.52441 Q17.91992 34.62793 18.84766 41.04883 Q19.77539 47.46973 21.43555 53.42676 Q23.14453 59.43262 25.39062 64.31543 Q27.63672 69.19824 30.27344 72.27441 C27.89714 72.27441 24.92676 72.27441 23.14453 72.27441 Q18.4082 66.21973 15.33203 59.4082 Q12.25586 52.59668 10.74219 44.88184 Q9.27734 37.21582 9.27734 28.52441 Q9.27734 19.83301 10.7666 12.11816 Q12.25586 4.40332 15.2832 -2.38379 Q18.35937 -9.21973 23.14453 -15.27441 z" />
<glyph unicode=")" horiz-adv-x="32.22656" d="M9.08203 -15.27441 Q13.86719 -9.26855 16.91895 -2.43261 Q19.9707 4.40332 21.43555 12.11816 Q22.94922 19.83301 22.94922 28.52441 Q22.94922 37.21582 21.45996 44.90625 Q19.9707 52.59668 16.89453 59.38379 Q13.86719 66.21973 9.08203 72.27441 C6.70573 72.27441 3.73535 72.27441 1.95312 72.27441 Q4.58984 69.19824 6.83594 64.31543 Q9.08203 59.43262 10.74219 53.42676 Q12.45117 47.46973 13.3789 41.04883 Q14.30664 34.62793 14.30664 28.52441 Q14.30664 22.4209 13.3789 16 Q12.45117 9.5791 10.74219 3.57324 Q9.08203 -2.43262 6.83594 -7.31543 Q4.58984 -12.19824 1.95312 -15.27441 C4.32942 -15.27441 7.2998 -15.27441 9.08203 -15.27441 z" />
<glyph unicode="*" horiz-adv-x="40.03906" d="M17.04102 43.88085 C17.21192 40.03564 17.55371 32.34522 17.72461 28.5 C18.87207 28.5 21.16699 28.5 22.31445 28.5 C22.48535 32.34522 22.82715 40.03564 22.99805 43.88085 C21.50879 43.88085 18.53028 43.88085 17.04102 43.88085 zM17.04102 13.11915 C18.53028 13.11915 21.50879 13.11915 22.99805 13.11915 C22.82715 16.96436 22.48535 24.65479 22.31445 28.5 C21.16699 28.5 18.87207 28.5 17.72461 28.5 C17.55371 24.65479 17.21192 16.96436 17.04102 13.11915 zM5.22461 33.91992 C8.63037 32.12549 15.4419 28.53662 18.84766 26.74218 C19.42139 27.6333 20.56885 29.41553 21.14258 30.30665 C17.91992 32.35743 11.47461 36.45898 8.25195 38.50977 C7.49511 37.3623 5.98145 35.06739 5.22461 33.91993 zM34.81445 33.91992 C34.05761 35.06739 32.54395 37.3623 31.78711 38.50977 C28.56445 36.45898 22.11914 32.35743 18.89648 30.30665 C19.47021 29.41553 20.61768 27.6333 21.19141 26.74218 C24.59717 28.53662 31.40869 32.12549 34.81445 33.91993 zM34.81445 23.12891 C31.40869 24.92334 24.59717 28.51221 21.19141 30.30665 C20.61768 29.41553 19.47021 27.6333 18.89648 26.74218 C22.11914 24.69141 28.56445 20.58984 31.78711 18.53907 C32.54395 19.68652 34.05761 21.98145 34.81445 23.12891 zM5.22461 23.03124 C5.98145 21.88378 7.49511 19.58886 8.25195 18.44141 C11.47461 20.49219 17.91992 24.59375 21.14258 26.64454 C20.56885 27.53565 19.42139 29.31787 18.84766 30.20898 C15.4419 28.41455 8.63037 24.82568 5.22461 23.03125 z" />
<glyph unicode="+" horiz-adv-x="60.44922" d="M5.46875 24.54492 C17.85889 24.54493 42.63916 24.54493 55.0293 24.54493 C55.0293 26.52246 55.0293 30.47754 55.0293 32.45507 C42.63916 32.45507 17.85889 32.45507 5.46875 32.45507 C5.46875 30.47754 5.46875 26.52246 5.46875 24.54493 zM26.26953 4.33007 C28.24707 4.33007 32.20215 4.33007 34.17969 4.33007 C34.17969 16.41504 34.17969 40.58496 34.17969 52.66993 C32.20215 52.66993 28.24707 52.66993 26.26953 52.66993 C26.26953 40.58496 26.26953 16.41504 26.26953 4.33007 z" />
<glyph unicode="," horiz-adv-x="21.48438" d="M2.09961 -13.81836 C3.61328 -13.81836 6.64063 -13.81836 8.1543 -13.81836 C9.93653 -7.84912 13.50097 4.08935 15.2832 10.05859 C13.06152 10.05859 8.61816 10.05859 6.39648 10.05859 C5.32226 4.08935 3.17383 -7.84912 2.09961 -13.81836 z" />
<glyph unicode="-" horiz-adv-x="42.87109" d="M5.81055 24.60938 C13.62305 24.60938 29.24805 24.60938 37.06055 24.60938 C37.06055 26.58692 37.06055 30.54199 37.06055 32.51953 C29.24805 32.51953 13.62305 32.51953 5.81055 32.51953 C5.81055 30.54199 5.81055 26.58692 5.81055 24.60938 z" />
<glyph unicode="." horiz-adv-x="21.48438" d="M10.74219 -0.68359 Q13.08594 -0.68359 14.69727 0.92773 Q16.30859 2.53906 16.30859 4.88281 Q16.30859 7.22656 14.69727 8.83789 Q13.08594 10.44922 10.74219 10.44922 Q8.39844 10.44922 6.78711 8.83789 Q5.17578 7.22656 5.17578 4.88281 Q5.17578 2.53906 6.78711 0.92773 Q8.39844 -0.68359 10.74219 -0.68359 z" />
<glyph unicode="/" horiz-adv-x="27.92969" d="M27.97852 70.45898 C25.95215 70.45898 21.89942 70.45898 19.87305 70.45898 C14.90479 48.57178 4.96826 4.79737 0 -17.08984 C2.02637 -17.08984 6.0791 -17.08984 8.10547 -17.08984 C13.07373 4.79737 23.01026 48.57178 27.97852 70.45898 z" />
<glyph unicode="0" horiz-adv-x="60.64453" d="M30.27344 -7.90137 Q38.37891 -7.90137 44.18946 -3.45801 Q50 0.98535 53.07617 9.13965 Q56.20117 17.29395 56.20117 28.47559 C56.20117 28.50814 56.20117 28.54883 56.20117 28.57324 Q56.20117 39.75489 53.10059 47.90918 Q50 56.06348 44.18945 60.45801 Q38.37891 64.90137 30.27344 64.90137 Q22.16797 64.90137 16.38184 60.48243 Q10.5957 56.06348 7.51953 47.90918 Q4.44336 39.75489 4.44336 28.57324 C4.44336 28.54069 4.44336 28.5 4.44336 28.47559 Q4.44336 17.29395 7.51953 9.13965 Q10.5957 0.98535 16.35742 -3.45801 Q22.16797 -7.90136 30.27344 -7.90137 zM30.27344 -0.23535 Q24.90234 -0.23535 21.09375 3.25586 Q17.28516 6.74707 15.2832 13.19239 Q13.28125 19.6377 13.28125 28.47559 C13.28125 28.50814 13.28125 28.54883 13.28125 28.57324 Q13.28125 37.41113 15.28321 43.83203 Q17.28516 50.25293 21.09375 53.71973 Q24.90234 57.18653 30.27344 57.18653 Q35.64453 57.18653 39.47754 53.71973 Q43.31055 50.25293 45.3125 43.80762 Q47.36328 37.41113 47.36328 28.57324 C47.36328 28.54069 47.36328 28.5 47.36328 28.47559 Q47.36328 19.6377 45.33691 13.19239 Q43.31055 6.74707 39.45312 3.23145 Q35.64453 -0.23535 30.27344 -0.23535 z" />
<glyph unicode="1" horiz-adv-x="44.33594" d="M23.68164 -6.72949 C25.80566 -6.72949 30.05371 -6.72949 32.17773 -6.72949 C32.17773 10.88526 32.17773 46.11474 32.17773 63.72949 C30.02929 63.72949 25.73242 63.72949 23.58398 63.72949 C18.89648 60.36035 9.52148 53.62207 4.83398 50.25293 C4.83398 48.04346 4.83398 43.62451 4.83398 41.41504 C9.49707 44.66211 18.82324 51.15625 23.48633 54.40332 C23.53516 54.40332 23.63281 54.40332 23.68164 54.40332 C23.68164 39.12012 23.68164 8.55371 23.68164 -6.72949 z" />
<glyph unicode="2" horiz-adv-x="56.5918" d="M5.71289 -7.31543 C17.33398 -7.31543 40.57618 -7.31543 52.19727 -7.31543 C52.19727 -5.3623 52.19727 -1.45605 52.19727 0.49707 C42.94434 0.49707 24.43848 0.49707 15.18555 0.49707 C15.83252 -0.11328 17.12647 -1.33399 17.77344 -1.94434 C17.77344 -0.58936 17.77344 2.12061 17.77344 3.47559 C17.12647 2.12061 15.83252 -0.58936 15.18555 -1.94434 C20.01953 3.01171 29.6875 12.92382 34.52148 17.87988 Q41.01562 24.52051 44.58008 29.03711 Q48.14453 33.55371 49.56055 37.16699 Q51.02539 40.78027 51.02539 44.63769 C51.02539 44.67024 51.02539 44.71094 51.02539 44.73535 Q51.02539 50.25293 48.16895 54.69629 Q45.3125 59.13965 40.33203 61.72754 Q35.35156 64.31543 28.95508 64.31543 Q22.41211 64.31543 17.0166 61.55664 Q11.62109 58.79785 8.44727 53.96387 Q5.27344 49.17871 5.27344 43.07519 C5.27344 42.97754 5.27344 42.85547 5.27344 42.78223 C7.39746 42.78223 11.64551 42.78223 13.76953 42.78223 C13.76953 42.84326 13.76953 42.96533 13.76953 43.02637 Q13.76953 46.83496 15.77148 49.91113 Q17.77344 52.9873 21.24023 54.79395 Q24.70703 56.64941 29.10156 56.64941 Q32.95898 56.64941 35.91309 55.0625 Q38.86719 53.47559 40.52734 50.69238 Q42.23633 47.90918 42.23633 44.2959 C42.23633 44.26335 42.23633 44.22266 42.23633 44.19824 Q42.23633 41.26855 41.28418 38.68066 Q40.33203 36.09277 37.79297 32.82129 Q35.30273 29.59863 30.51758 24.61816 C22.24935 15.99186 11.91406 5.20898 5.71289 -1.26074 C5.71289 -2.77441 5.71289 -5.80176 5.71289 -7.31543 z" />
<glyph unicode="3" horiz-adv-x="59.17969" d="M29.44336 -7.90137 Q36.52344 -7.90137 42.04102 -5.24023 Q47.55859 -2.5791 50.73242 2.05957 Q53.90625 6.69824 53.90625 12.55762 C53.90625 12.59017 53.90625 12.63086 53.90625 12.65528 Q53.90625 20.17481 49.14551 24.74024 Q44.38477 29.30567 36.66992 29.94043 C36.66992 30.00553 36.66992 30.08691 36.66992 30.13574 Q41.06445 31.06348 44.43359 33.30957 Q47.80273 35.55567 49.70703 38.92481 Q51.61133 42.29395 51.61133 46.63965 C51.61133 46.6722 51.61133 46.7129 51.61133 46.73731 Q51.61133 52.1084 48.85254 56.18555 Q46.09375 60.2627 41.06445 62.55762 Q36.08398 64.90137 29.3457 64.90137 Q22.75391 64.90137 17.7002 62.50879 Q12.64648 60.11621 9.57031 55.81934 Q6.54297 51.52246 5.95703 45.76074 C5.94075 45.59798 5.92041 45.39453 5.9082 45.27246 C8.02002 45.27246 12.24365 45.27246 14.35547 45.27246 C14.36768 45.39453 14.39209 45.63867 14.4043 45.76074 Q14.79492 49.3252 16.74804 51.91309 Q18.70117 54.50098 21.92383 55.86817 Q25.19531 57.28418 29.3457 57.28418 Q33.64258 57.28418 36.64551 55.917 Q39.64844 54.54981 41.21094 51.96192 Q42.77344 49.37403 42.77344 45.66309 C42.77344 45.63054 42.77344 45.58984 42.77344 45.56543 Q42.77344 42.04981 40.9668 39.29102 Q39.16016 36.53223 35.9375 34.9209 Q32.71484 33.3584 28.51562 33.3584 C25.69987 33.3584 22.18018 33.3584 20.06836 33.3584 C20.06836 31.50293 20.06836 27.792 20.06836 25.93653 C22.27783 25.93653 26.69678 25.93653 28.90625 25.93653 Q36.32812 25.93653 40.64941 22.44532 Q44.9707 18.9541 44.9707 12.45996 C44.9707 12.42741 44.9707 12.38672 44.9707 12.36231 Q44.9707 8.65137 43.01758 5.79493 Q41.06445 2.93848 37.54883 1.32715 Q34.08203 -0.28418 29.44336 -0.28418 Q22.41211 -0.28418 17.96875 2.9873 Q13.52539 6.25879 12.98828 11.43457 C12.972 11.59733 12.95166 11.80078 12.93945 11.92285 C10.82763 11.92285 6.604 11.92285 4.49219 11.92285 C4.5044 11.77637 4.52881 11.4834 4.54102 11.33692 Q5.0293 5.77051 8.17871 1.4248 Q11.32812 -2.9209 16.74805 -5.41113 Q22.16797 -7.90136 29.44336 -7.90137 z" />
<glyph unicode="4" horiz-adv-x="60.44922" d="M39.20898 -6.72949 C41.33301 -6.72949 45.58105 -6.72949 47.70508 -6.72949 C47.70508 -3.06738 47.70508 4.25684 47.70508 7.91895 C50.19531 7.91895 55.17579 7.91895 57.66602 7.91895 C57.66602 9.84766 57.66602 13.70508 57.66602 15.63379 C55.17579 15.63379 50.19531 15.63379 47.70508 15.63379 C47.70508 27.65772 47.70508 51.70556 47.70508 63.72949 C44.45801 63.72949 37.96387 63.72949 34.7168 63.72949 Q31.64062 58.94434 28.54003 54.15918 Q25.43945 49.37403 22.36328 44.58887 Q19.28711 39.80371 16.18653 35.01855 Q13.08594 30.2334 9.96094 25.44824 Q6.88477 20.66309 3.80859 15.87793 C3.80859 13.22494 3.80859 9.90869 3.80859 7.91895 C12.65869 7.91895 30.35888 7.91895 39.20898 7.91895 C39.20898 4.25684 39.20898 -3.06738 39.20898 -6.72949 zM12.5 15.63379 C12.5 15.68262 12.5 15.78027 12.5 15.8291 Q15.13672 19.88184 17.77344 23.91016 Q20.41016 27.93848 23.04688 31.99121 Q25.73242 36.04395 28.36914 40.07227 Q31.00586 44.10059 33.64258 48.10449 Q36.2793 52.15723 38.91602 56.20996 C39.01367 56.20996 39.13574 56.20996 39.20898 56.20996 C39.20898 46.06592 39.20898 25.77783 39.20898 15.63379 C32.53174 15.63379 19.17724 15.63379 12.5 15.63379 z" />
<glyph unicode="5" horiz-adv-x="58.49609" d="M29.93164 -7.31543 Q37.25586 -7.31543 42.91992 -4.26367 Q48.58398 -1.21191 51.80664 4.20801 Q55.0293 9.62793 55.0293 16.65918 C55.0293 16.69173 55.0293 16.73243 55.0293 16.75684 Q55.0293 23.54395 52.02637 28.79297 Q49.02344 34.042 43.75 37.06934 Q38.52539 40.09668 31.73828 40.09668 Q26.61133 40.09668 22.41211 38.24122 Q18.21289 36.38575 15.72266 32.82129 C15.65755 32.82129 15.57617 32.82129 15.52734 32.82129 C16.12549 38.7417 17.32178 50.58252 17.91992 56.50293 C26.19629 56.50293 42.74902 56.50293 51.02539 56.50293 C51.02539 58.45605 51.02539 62.3623 51.02539 64.31543 C40.94238 64.31543 20.77637 64.31543 10.69336 64.31543 C9.79004 54.26905 7.9834 34.17628 7.08008 24.12989 C9.021 24.12989 12.90283 24.12989 14.84375 24.12989 Q15.52734 25.35059 16.38184 26.37598 Q17.23633 27.40137 18.16406 28.28028 Q20.50781 30.42872 23.55957 31.47852 Q26.61133 32.52833 30.17578 32.52833 Q34.86328 32.52833 38.47656 30.47754 Q42.08984 28.42676 44.14062 24.81348 Q46.24023 21.24903 46.24023 16.61036 C46.24023 16.57781 46.24023 16.53711 46.24023 16.5127 Q46.24023 11.77637 44.18945 8.13868 Q42.13867 4.50098 38.47656 2.4502 Q34.81445 0.39942 30.0293 0.39942 Q25.83008 0.39942 22.46094 2.01075 Q19.0918 3.62207 16.99219 6.40528 Q14.89258 9.23731 14.45312 12.70411 C14.43685 12.83432 14.4165 12.99707 14.4043 13.09473 C12.24365 13.09473 7.92237 13.09473 5.76172 13.09473 C5.77393 12.96045 5.79834 12.6919 5.81055 12.55762 Q6.34766 6.84473 9.52148 2.35254 Q12.69531 -2.13964 17.91992 -4.72753 Q23.19336 -7.31543 29.93164 -7.31543 z" />
<glyph unicode="6" horiz-adv-x="61.71875" d="M31.20117 -7.90137 Q38.42773 -7.90137 44.04296 -4.80078 Q49.6582 -1.70019 52.88086 3.6709 Q56.15234 9.09082 56.15234 16.02442 C56.15234 16.05697 56.15234 16.09766 56.15234 16.12207 Q56.15234 22.81153 53.10059 28.08497 Q50.04883 33.3584 44.77539 36.38574 Q39.50195 39.41309 32.76367 39.41309 Q27.97852 39.41309 24.07227 37.875 Q20.16602 36.33692 17.33398 33.74903 Q14.55078 31.20996 13.13477 28.08496 C12.79297 28.08496 12.36573 28.08496 12.10938 28.08496 C12.10938 25.09424 12.10938 19.11279 12.10938 16.12207 C12.8418 16.12207 14.30664 16.12207 15.03906 16.12207 C15.03906 16.13428 15.03906 16.15869 15.03906 16.1709 Q15.03906 20.66309 17.16309 24.17872 Q19.28711 27.69434 22.94922 29.69629 Q26.66016 31.69824 31.25 31.69824 Q35.88867 31.69824 39.50195 29.67188 Q43.11523 27.64551 45.16602 24.08106 Q47.2168 20.5166 47.2168 15.92676 C47.2168 15.89421 47.2168 15.85352 47.2168 15.8291 Q47.2168 11.38574 45.06836 7.77246 Q42.91992 4.15918 39.25781 2.01074 Q35.5957 -0.08887 31.10352 -0.08887 Q26.61133 -0.08886 22.94922 2.08399 Q19.28711 4.25684 17.13867 7.91895 Q15.03906 11.62989 15.03906 16.12207 C14.33919 19.97949 13.46435 24.80127 12.93945 27.69434 Q12.93945 28.18262 12.93945 28.64648 Q12.93945 29.11035 12.98828 29.59863 Q13.18359 37.02051 15.1123 43.27051 Q17.04102 49.52051 21.09375 53.3291 Q25.14648 57.1377 31.68945 57.1377 Q35.30273 57.1377 38.15918 55.99024 Q41.01562 54.84278 43.01758 52.74317 Q45.01953 50.64356 46.04492 47.71387 C46.11002 47.53483 46.1914 47.31104 46.24023 47.17676 C48.47412 47.17676 52.94189 47.17676 55.17578 47.17676 C55.13916 47.33545 55.06592 47.65284 55.0293 47.81153 Q53.85742 52.93848 50.63477 56.7959 Q47.41211 60.65332 42.57812 62.75293 Q37.79297 64.90137 31.78711 64.90137 Q23.19336 64.90137 17.06543 60.45801 Q10.9375 56.01465 7.66602 47.56739 Q4.44336 39.16895 4.44336 27.30371 C4.44336 27.27116 4.44336 27.23047 4.44336 27.20606 Q4.44336 17.3916 6.7627 10.67773 Q9.08203 3.96387 12.93945 -0.13769 Q16.8457 -4.23926 21.58203 -6.07031 Q26.31836 -7.90136 31.20117 -7.90137 z" />
<glyph unicode="7" horiz-adv-x="54.6875" d="M9.76562 -6.72949 C12.07275 -6.72949 16.68701 -6.72949 18.99414 -6.72949 C26.83105 8.84668 42.50489 39.99903 50.3418 55.5752 C50.3418 57.61377 50.3418 61.69092 50.3418 63.72949 C38.68408 63.72949 15.36865 63.72949 3.71094 63.72949 C3.71094 61.77636 3.71094 57.87011 3.71094 55.91699 C13.1958 55.91699 32.16553 55.91699 41.65039 55.91699 C41.65039 55.86816 41.65039 55.77051 41.65039 55.72168 C33.6792 40.10889 17.73681 8.8833 9.76562 -6.72949 z" />
<glyph unicode="8" horiz-adv-x="59.96094" d="M29.98047 -7.90137 Q37.45117 -7.90137 43.2373 -5.31348 Q49.02344 -2.72558 52.29492 1.81543 Q55.56641 6.40528 55.56641 12.31348 C55.56641 12.34603 55.56641 12.38672 55.56641 12.41113 Q55.56641 16.75684 53.66211 20.46777 Q51.75781 24.17871 48.33984 26.7666 Q44.9707 29.40332 40.42969 30.42871 C40.42969 30.49382 40.42969 30.5752 40.42969 30.62403 Q46.24023 32.43067 49.63378 36.58106 Q53.02734 40.73145 53.02734 46.29785 C53.02734 46.3304 53.02734 46.37109 53.02734 46.39551 Q53.02734 51.71778 50.04883 55.89259 Q47.07031 60.06739 41.8457 62.45996 Q36.66992 64.90137 29.98047 64.90137 Q23.33984 64.90137 18.11523 62.48438 Q12.89062 60.06739 9.91211 55.86817 Q6.93359 51.71778 6.93359 46.39551 C6.93359 46.36296 6.93359 46.32227 6.93359 46.29785 Q6.93359 40.73145 10.35156 36.58106 Q13.76953 32.43067 19.53125 30.62403 C19.53125 30.55892 19.53125 30.47754 19.53125 30.42871 Q15.03906 29.40332 11.62109 26.79102 Q8.20312 24.17871 6.29883 20.46778 Q4.39453 16.75684 4.39453 12.41113 C4.39453 12.37858 4.39453 12.33789 4.39453 12.31348 Q4.39453 6.40528 7.69043 1.83985 Q10.98633 -2.72558 16.74805 -5.31347 Q22.50977 -7.90136 29.98047 -7.90137 zM29.98047 -0.23535 Q25.14648 -0.23535 21.38671 1.44922 Q17.62695 3.13379 15.47852 6.06348 Q13.33008 9.04199 13.33008 12.85059 C13.33008 12.88314 13.33008 12.92383 13.33008 12.94824 Q13.33008 16.80567 15.4541 19.78418 Q17.57812 22.7627 21.33789 24.47168 Q25.09766 26.18067 29.98047 26.18067 Q34.86328 26.18067 38.62304 24.47168 Q42.38281 22.7627 44.48242 19.78418 Q46.63086 16.80567 46.63086 12.94824 C46.63086 12.91569 46.63086 12.875 46.63086 12.85059 Q46.63086 9.04199 44.48242 6.08789 Q42.33398 3.13379 38.57422 1.42481 Q34.86328 -0.23535 29.98047 -0.23535 zM29.98047 33.89551 Q25.73242 33.89551 22.50977 35.38477 Q19.28711 36.87403 17.48047 39.51074 Q15.67383 42.14746 15.67383 45.56543 C15.67383 45.59798 15.67383 45.63868 15.67383 45.66309 Q15.67383 49.08106 17.48047 51.71777 Q19.28711 54.35449 22.50977 55.81934 Q25.73242 57.33301 29.98047 57.33301 Q34.22852 57.33301 37.45118 55.84375 Q40.67383 54.35449 42.48047 51.71778 Q44.28711 49.08106 44.28711 45.66309 C44.28711 45.63054 44.28711 45.58984 44.28711 45.56543 Q44.28711 42.14746 42.48047 39.51075 Q40.67383 36.87403 37.45117 35.36035 Q34.22852 33.89551 29.98047 33.89551 z" />
<glyph unicode="9" horiz-adv-x="61.71875" d="M30.51758 64.90137 Q23.29102 64.90137 17.67579 61.80079 Q12.06055 58.7002 8.78906 53.28028 Q5.56641 47.90918 5.56641 40.97559 C5.56641 40.94304 5.56641 40.90234 5.56641 40.87793 Q5.56641 34.18848 8.61816 28.91504 Q11.66992 23.6416 16.94336 20.61426 Q22.26562 17.58692 28.95508 17.58692 Q33.74023 17.58692 37.67089 19.125 Q41.60156 20.66309 44.38477 23.20215 Q47.16797 25.79004 48.58398 28.91504 C48.92578 28.91504 49.35303 28.91504 49.60938 28.91504 C49.60938 31.90576 49.60938 37.88721 49.60938 40.87793 C48.87696 40.87793 47.41211 40.87793 46.67969 40.87793 C46.67969 40.86572 46.67969 40.84131 46.67969 40.8291 Q46.67969 36.33692 44.55566 32.82129 Q42.43164 29.30567 38.76953 27.30371 Q35.10742 25.30176 30.46875 25.30176 Q25.83008 25.30176 22.2168 27.32812 Q18.60352 29.35449 16.55273 32.91895 Q14.50195 36.4834 14.50195 41.07324 C14.50195 41.10579 14.50195 41.14648 14.50195 41.1709 Q14.50195 45.61426 16.65039 49.22754 Q18.79883 52.84082 22.46094 54.94043 Q26.12305 57.08887 30.61523 57.08887 Q35.15625 57.08887 38.79395 54.91602 Q42.43164 52.74317 44.53125 49.08106 Q46.67969 45.41895 46.67969 40.87793 C47.37956 37.02051 48.2544 32.19873 48.7793 29.30567 Q48.7793 28.81739 48.7793 28.35352 Q48.7793 27.88965 48.73047 27.40137 Q48.53516 20.02832 46.60645 13.75391 Q44.67773 7.47949 40.625 3.6709 Q36.62109 -0.13769 30.0293 -0.13769 Q26.41602 -0.13769 23.55957 1.00977 Q20.70312 2.15723 18.70117 4.25684 Q16.74805 6.40528 15.67383 9.28613 C15.60873 9.46517 15.52735 9.68896 15.47852 9.82324 C13.24463 9.82324 8.77686 9.82324 6.54297 9.82324 C6.57959 9.66455 6.65283 9.34717 6.68945 9.18848 Q7.86133 4.06153 11.08398 0.22852 Q14.30664 -3.60449 19.14062 -5.75293 Q23.97461 -7.90137 29.93164 -7.90137 Q38.57422 -7.90137 44.67773 -3.45801 Q50.78125 0.98535 54.00391 9.38379 Q57.27539 17.83106 57.27539 29.69629 C57.27539 29.72884 57.27539 29.76954 57.27539 29.79395 Q57.27539 39.6084 54.95605 46.32227 Q52.63672 53.03613 48.73047 57.1377 Q44.87305 61.23926 40.13672 63.07032 Q35.40039 64.90137 30.51758 64.90137 z" />
<glyph unicode=":" horiz-adv-x="30.81055" d="M8.78906 45.07715 C8.78906 41.41504 11.71875 38.58301 15.2832 38.58301 C19.14062 38.58301 22.02148 41.41504 22.02148 45.07715 C22.02148 48.93457 19.14062 51.7666 15.2832 51.7666 C11.71875 51.7666 8.78906 48.93457 8.78906 45.07715 zM8.78906 11.72754 C8.78906 8.06543 11.71875 5.2334 15.2832 5.2334 C19.14062 5.2334 22.02148 8.06543 22.02148 11.72754 C22.02148 15.58496 19.14062 18.417 15.2832 18.417 C11.71875 18.417 8.78906 15.58496 8.78906 11.72754 z" />
<glyph unicode=";" horiz-adv-x="30.81055" d="M8.78906 54.86718 C8.78906 51.20507 11.71875 48.37305 15.2832 48.37305 C19.14062 48.37305 22.02148 51.20507 22.02148 54.86718 C22.02148 58.7246 19.14062 61.55665 15.2832 61.55665 C11.71875 61.55665 8.78906 58.7246 8.78906 54.86718 zM9.17969 -4.55664 C12.01172 2.69433 17.67578 17.19629 20.50781 24.44727 C17.90771 24.44727 12.70752 24.44727 10.10742 24.44727 C8.1665 17.19629 4.28467 2.69433 2.34375 -4.55665 C4.05273 -4.55665 7.47071 -4.55665 9.17969 -4.55665 z" />
<glyph unicode="@" horiz-adv-x="87.45117" d="M45.94727 -12.24707 Q55.66406 -12.24707 62.45117 -9.85449 C62.45117 -7.64095 62.45117 -4.87402 62.45117 -3.21387 Q60.05859 -4.28808 55.51758 -4.92285 Q50.97656 -5.55762 46.04492 -5.55762 Q36.37695 -5.55762 28.73535 -1.65137 Q21.09375 2.25488 16.65039 9.82324 Q12.20703 17.44043 12.20703 28.37793 C12.20703 28.39421 12.20703 28.41455 12.20703 28.42676 Q12.20703 35.94629 14.59961 42.2207 Q16.99219 48.49512 21.33789 53.03613 Q25.68359 57.62598 31.59179 60.11622 Q37.5 62.60645 44.53125 62.60645 Q54.19922 62.60645 61.49903 58.87109 Q68.79883 55.13574 72.85156 48.25098 Q76.95312 41.36621 76.95312 31.89356 C76.95312 31.87728 76.95312 31.85694 76.95312 31.84473 Q76.95312 22.90918 74.56054 18.417 Q72.16797 13.92481 68.31055 13.92481 Q65.42969 13.92481 63.62305 16.41504 Q61.81641 18.90527 61.81641 23.93457 C61.81641 31.861 61.81641 41.76905 61.81641 47.71387 C59.97315 47.71387 56.28662 47.71387 54.44336 47.71387 C54.44336 46.22461 54.44336 43.2461 54.44336 41.75684 C54.3457 41.75684 54.15039 41.75684 54.05273 41.75684 Q52.68555 44.88184 49.41406 46.76172 Q46.14258 48.6416 42.23633 48.6416 Q37.25586 48.6416 33.42285 46.07812 Q29.58984 43.51465 27.39258 38.97363 Q25.24414 34.43262 25.24414 28.42676 C25.24414 28.41048 25.24414 28.39014 25.24414 28.37793 Q25.24414 22.17676 27.36816 17.53809 Q29.49219 12.89942 33.30078 10.31152 Q37.1582 7.72363 42.23633 7.72363 Q46.92383 7.72363 50.5127 9.89648 Q54.10156 12.06934 55.81055 16.5127 C55.95703 16.5127 56.14014 16.5127 56.25 16.5127 C56.28662 16.40283 56.35986 16.1831 56.39648 16.07324 Q57.61719 12.41113 60.62012 9.84766 Q63.62305 7.28418 68.21289 7.28418 Q72.75391 7.28418 76.41602 10.06738 Q80.07812 12.85059 82.17773 18.31934 Q84.32617 23.78809 84.32617 31.89356 C84.32617 31.90983 84.32617 31.93017 84.32617 31.94238 Q84.32617 43.41699 79.24804 51.79102 Q74.16992 60.16504 65.33203 64.70606 Q56.49414 69.24707 45.16602 69.24707 Q36.2793 69.24707 28.88184 66.29297 Q21.48438 63.33887 16.06445 57.91895 Q10.69336 52.49902 7.76367 45.02832 Q4.83398 37.55762 4.83398 28.47559 C4.83398 28.45931 4.83398 28.43897 4.83398 28.42676 Q4.83398 18.61231 7.88574 11.01954 Q10.9375 3.42676 16.45508 -1.74902 Q22.02148 -6.9248 29.5166 -9.58594 Q37.01172 -12.24707 45.94727 -12.24707 zM43.35938 14.6084 Q40.18555 14.6084 37.86622 16.26855 Q35.54688 17.92871 34.27734 20.95606 Q33.05664 24.03223 33.05664 28.3291 C33.05664 28.34538 33.05664 28.36572 33.05664 28.37793 Q33.05664 32.62598 34.30176 35.65332 Q35.54688 38.68066 37.8418 40.29199 Q40.18555 41.90332 43.45703 41.90332 Q48.38867 41.90332 51.36719 38.24121 Q54.3457 34.5791 54.3457 28.3291 C54.3457 28.31282 54.3457 28.29248 54.3457 28.28027 Q54.3457 22.03027 51.36719 18.31934 Q48.38867 14.6084 43.35938 14.6084 z" />
<glyph unicode="A" horiz-adv-x="60.69336" d="M10.79102 -4.8252 C12.52442 0.30176 15.99121 10.55566 17.72461 15.68261 C24.03564 15.68261 36.65771 15.68261 42.96875 15.68261 C44.70215 10.55566 48.16894 0.30176 49.90234 -4.8252 C51.94092 -4.8252 56.01806 -4.8252 58.05664 -4.8252 C52.0752 11.8374 40.1123 45.1626 34.13086 61.8252 C32.23877 61.8252 28.45459 61.8252 26.5625 61.8252 C20.58105 45.1626 8.61816 11.8374 2.63672 -4.8252 C4.6753 -4.8252 8.75245 -4.8252 10.79102 -4.8252 zM30.46875 52.20605 C33.04443 44.67432 38.1958 29.61084 40.77148 22.07911 C35.55908 22.07911 25.13428 22.07911 19.92188 22.07911 C22.48536 29.61084 27.6123 44.67432 30.17578 52.20605 C30.24902 52.20605 30.39551 52.20605 30.46875 52.20605 z" />
<glyph unicode="B" horiz-adv-x="62.01172" d="M9.47266 -4.8252 C15.33204 -4.8252 27.05079 -4.8252 32.91016 -4.8252 C47.41211 -4.8252 56.20117 2.20605 56.20117 13.82714 C56.20117 23.00684 50.87891 29.06152 41.79688 30.33105 C41.79688 30.44499 41.79688 30.5874 41.79688 30.67286 C48.63281 32.87011 52.34375 37.99707 52.34375 45.41895 C52.34375 55.47753 45.26367 61.8252 34.0332 61.8252 C25.84635 61.8252 15.6128 61.8252 9.47266 61.8252 C9.47266 45.1626 9.47266 11.8374 9.47266 -4.8252 zM17.23633 54.74511 C21.15479 54.74511 28.9917 54.74511 32.91016 54.74511 C40.18555 54.74511 44.43359 50.83886 44.43359 44.10059 C44.43359 36.38575 39.25781 32.96777 27.68555 32.96777 C24.20248 32.96777 19.84864 32.96777 17.23633 32.96777 C17.23633 38.41211 17.23633 49.30078 17.23633 54.74511 zM17.23633 25.93652 C21.39893 25.93652 29.72412 25.93652 33.88672 25.93652 C42.96875 25.93652 48.24219 21.44434 48.24219 13.63184 C48.24219 5.52636 42.72461 2.25488 29.10156 2.25488 C25.14648 2.25488 20.20264 2.25488 17.23633 2.25488 C17.23633 8.1753 17.23633 20.01612 17.23633 25.93652 z" />
<glyph unicode="C" horiz-adv-x="68.60352" d="M36.2793 -7.90137 Q43.65234 -7.90137 49.6582 -5.16699 Q55.66406 -2.43261 59.66797 2.54785 Q63.67188 7.57715 64.99023 14.31543 C65.02278 14.47819 65.06347 14.68164 65.08789 14.80371 C62.86621 14.80371 58.42285 14.80371 56.20117 14.80371 C56.16455 14.69385 56.09131 14.47412 56.05469 14.36426 Q54.54102 9.72559 51.75781 6.57618 Q48.97461 3.42676 45.06836 1.81543 Q41.21094 0.2041 36.2793 0.2041 Q29.29688 0.2041 24.07227 3.71973 Q18.84766 7.23535 15.9668 13.58301 Q13.13477 19.97949 13.13477 28.52442 C13.13477 28.54069 13.13477 28.56103 13.13477 28.57324 Q13.13477 37.16699 15.99122 43.49023 Q18.84766 49.81348 24.02344 53.28028 Q29.24805 56.7959 36.2793 56.7959 Q41.25977 56.7959 45.16602 55.18457 Q49.07227 53.57324 51.75781 50.5459 Q54.49219 47.56739 55.85938 43.27051 C55.97331 42.91244 56.11572 42.46484 56.20117 42.19629 C58.42285 42.19629 62.86621 42.19629 65.08789 42.19629 C65.06347 42.31836 65.01464 42.5625 64.99023 42.68457 Q63.67188 49.37403 59.64355 54.3545 Q55.61523 59.33496 49.60938 62.11817 Q43.60352 64.90137 36.2793 64.90137 Q26.46484 64.90137 19.23828 60.43359 Q12.01172 55.96582 8.05664 47.81153 Q4.10156 39.65723 4.10156 28.57324 C4.10156 28.55697 4.10156 28.53662 4.10156 28.52442 Q4.10156 17.44043 8.05664 9.26172 Q12.01172 1.08301 19.23828 -3.40918 Q26.51367 -7.90136 36.2793 -7.90137 z" />
<glyph unicode="D" horiz-adv-x="65.38086" d="M9.47266 61.82519 C9.47266 45.1626 9.47266 11.8374 9.47266 -4.8252 C14.69727 -4.8252 25.14648 -4.8252 30.37109 -4.8252 C49.60938 -4.8252 59.57031 6.55175 59.57031 28.47559 C59.57031 50.44825 49.60938 61.8252 30.37109 61.8252 C23.40495 61.8252 14.69727 61.8252 9.47266 61.8252 zM17.23633 54.79394 C20.44678 54.79395 26.86767 54.79395 30.07812 54.79395 C44.38477 54.79395 51.51367 46.05372 51.51367 28.47559 C51.51367 10.94628 44.43359 2.25488 30.07812 2.25488 C25.79752 2.25488 20.44678 2.25488 17.23633 2.25488 C17.23633 15.38965 17.23633 41.65918 17.23633 54.79395 z" />
<glyph unicode="E" horiz-adv-x="56.00586" d="M48.97461 2.25488 C41.04004 2.25488 25.1709 2.25488 17.23633 2.25488 C17.23633 8.12647 17.23633 19.86963 17.23633 25.74122 C24.73145 25.74122 39.72168 25.74122 47.2168 25.74122 C47.2168 27.49903 47.2168 31.01465 47.2168 32.77247 C39.72168 32.77247 24.73145 32.77247 17.23633 32.77247 C17.23633 38.26563 17.23633 49.25195 17.23633 54.74511 C25.1709 54.74511 41.04004 54.74511 48.97461 54.74511 C48.97461 56.51513 48.97461 60.05517 48.97461 61.8252 C39.09912 61.8252 19.34815 61.8252 9.47266 61.8252 C9.47266 45.1626 9.47266 11.8374 9.47266 -4.8252 C19.34815 -4.8252 39.09912 -4.8252 48.97461 -4.8252 C48.97461 -3.05517 48.97461 0.48487 48.97461 2.25488 z" />
<glyph unicode="F" horiz-adv-x="52.58789" d="M17.23633 -4.8252 C17.23633 2.4624 17.23633 17.0376 17.23633 24.3252 C24.37744 24.3252 38.65967 24.3252 45.80078 24.3252 C45.80078 26.09521 45.80078 29.63526 45.80078 31.40527 C38.65967 31.40527 24.37744 31.40527 17.23633 31.40527 C17.23633 37.24023 17.23633 48.91016 17.23633 54.74511 C25.01221 54.74511 40.56396 54.74511 48.33984 54.74511 C48.33984 56.51513 48.33984 60.05517 48.33984 61.8252 C38.62304 61.8252 19.18946 61.8252 9.47266 61.8252 C9.47266 45.1626 9.47266 11.8374 9.47266 -4.8252 C11.41358 -4.8252 15.29541 -4.8252 17.23633 -4.8252 z" />
<glyph unicode="G" horiz-adv-x="70.6543" d="M36.37695 -7.90137 Q45.80078 -7.90137 52.46582 -4.28809 Q59.13086 -0.6748 62.69531 6.11231 Q66.25977 12.89942 66.25977 22.4209 C66.25977 24.65072 66.25977 27.43799 66.25977 29.11035 C59.09424 29.11035 44.76319 29.11035 37.59766 29.11035 C37.59766 27.18164 37.59766 23.32422 37.59766 21.39551 C42.56592 21.39551 52.50244 21.39551 57.4707 21.39551 C57.4707 21.07813 57.4707 20.44336 57.4707 20.12598 Q57.4707 14.21778 54.80957 9.72559 Q52.14844 5.2334 47.36328 2.69434 Q42.62695 0.2041 36.37695 0.2041 Q29.19922 0.2041 23.97461 3.6709 Q18.75 7.1377 15.91797 13.58301 Q13.08594 20.02832 13.08594 28.86621 C13.08594 28.88249 13.08594 28.90283 13.08594 28.91504 Q13.08594 37.60645 15.89355 43.85645 Q18.70117 50.10645 23.92578 53.42676 Q29.15039 56.7959 36.37695 56.7959 Q43.79883 56.7959 48.87696 53.10938 Q53.95508 49.42285 56.39648 42.7334 C56.46159 42.55436 56.54297 42.33057 56.5918 42.19629 C58.89893 42.19629 63.51318 42.19629 65.82031 42.19629 C65.75928 42.42822 65.6372 42.8921 65.57617 43.12403 Q63.96484 49.37403 60.15625 54.28125 Q56.34766 59.18848 50.39062 62.02051 Q44.48242 64.90137 36.37695 64.90137 Q26.5625 64.90137 19.31153 60.48243 Q12.06055 56.06348 8.05664 48.00684 Q4.10156 39.9502 4.10156 28.91504 C4.10156 28.89876 4.10156 28.87842 4.10156 28.86621 Q4.10156 17.63574 8.08105 9.38379 Q12.06055 1.13184 19.28711 -3.40918 Q26.5625 -7.90136 36.37695 -7.90137 z" />
<glyph unicode="H" horiz-adv-x="68.94531" d="M59.47266 -4.8252 C59.47266 11.8374 59.47266 45.1626 59.47266 61.8252 C57.53174 61.8252 53.6499 61.8252 51.70898 61.8252 C51.70898 54.68408 51.70898 40.40186 51.70898 33.26075 C43.09082 33.26075 25.85449 33.26075 17.23633 33.26075 C17.23633 40.40186 17.23633 54.68408 17.23633 61.8252 C15.29541 61.8252 11.41358 61.8252 9.47266 61.8252 C9.47266 45.1626 9.47266 11.8374 9.47266 -4.8252 C11.41358 -4.8252 15.29541 -4.8252 17.23633 -4.8252 C17.23633 2.93848 17.23633 18.46582 17.23633 26.2295 C25.85449 26.2295 43.09082 26.2295 51.70898 26.2295 C51.70898 18.46582 51.70898 2.93848 51.70898 -4.8252 C53.6499 -4.8252 57.53174 -4.8252 59.47266 -4.8252 z" />
<glyph unicode="I" horiz-adv-x="22.46094" d="M6.83594 -6.72949 C9.03321 -6.72949 13.42773 -6.72949 15.625 -6.72949 C15.625 10.88526 15.625 46.11474 15.625 63.72949 C13.42773 63.72949 9.03321 63.72949 6.83594 63.72949 C6.83594 46.11474 6.83594 10.88526 6.83594 -6.72949 z" />
<glyph unicode="J" horiz-adv-x="49.51172" d="M21.92383 -7.31543 Q31.68945 -7.31543 37.18261 -1.7002 Q42.67578 3.91504 42.67578 13.92481 C42.67578 30.72168 42.67578 51.71777 42.67578 64.31543 C40.47852 64.31543 36.08398 64.31543 33.88672 64.31543 C33.88672 51.74219 33.88672 26.59571 33.88672 14.02247 Q33.88672 7.57715 30.81055 4.18359 Q27.73438 0.79004 21.875 0.79004 Q18.4082 0.79004 16.06445 2.13282 Q13.7207 3.47559 12.45117 5.67286 Q11.18164 7.91895 10.88867 10.55567 C10.87239 10.71843 10.85205 10.92188 10.83984 11.04395 C8.64258 11.04395 4.24804 11.04395 2.05078 11.04395 C2.06299 10.87305 2.0874 10.53126 2.09961 10.36036 Q2.49023 5.33106 4.85839 1.32716 Q7.22656 -2.67675 11.52344 -5.0205 Q15.82031 -7.31543 21.92383 -7.31543 z" />
<glyph unicode="K" horiz-adv-x="60.05859" d="M14.89258 17.09863 C18.26172 20.80957 25 28.23145 28.36914 31.94239 C28.479 31.94239 28.69873 31.94239 28.80859 31.94239 C35.81543 39.88917 49.8291 55.78272 56.83594 63.72949 C54.07715 63.72949 48.55957 63.72949 45.80078 63.72949 C38.33008 55.08691 23.38867 37.80176 15.91797 29.15918 C15.66162 29.15918 15.14893 29.15918 14.89258 29.15918 C14.89258 26.14404 14.89258 20.11377 14.89258 17.09863 zM6.83594 -6.72949 C9.03321 -6.72949 13.42773 -6.72949 15.625 -6.72949 C15.625 10.88526 15.625 46.11474 15.625 63.72949 C13.42773 63.72949 9.03321 63.72949 6.83594 63.72949 C6.83594 46.11474 6.83594 10.88526 6.83594 -6.72949 zM48.19336 -6.72949 C51.00098 -6.72949 56.61621 -6.72949 59.42383 -6.72949 C51.78223 3.23145 36.49902 23.15332 28.85742 33.11426 C27.30713 31.55176 24.20654 28.42676 22.65625 26.86426 C29.04053 18.46582 41.80908 1.66895 48.19336 -6.72949 z" />
<glyph unicode="L" horiz-adv-x="52.44141" d="M6.83594 -6.72949 C17.5293 -6.72949 38.91602 -6.72949 49.60938 -6.72949 C49.60938 -4.75195 49.60938 -0.79687 49.60938 1.18067 C41.11329 1.18067 24.1211 1.18067 15.625 1.18067 C15.625 16.81787 15.625 48.09228 15.625 63.72949 C13.42773 63.72949 9.03321 63.72949 6.83594 63.72949 C6.83594 46.11474 6.83594 10.88526 6.83594 -6.72949 z" />
<glyph unicode="M" horiz-adv-x="79.63867" d="M16.79688 -4.8252 C16.79688 7.58935 16.79688 32.41845 16.79688 44.833 C16.89454 44.833 17.08985 44.833 17.1875 44.833 C21.97265 33.70019 31.54296 11.43457 36.32812 0.30175 C38.07373 0.30175 41.56494 0.30175 43.31055 0.30175 C48.0835 11.43457 57.62939 33.70019 62.40234 44.833 C62.5122 44.833 62.73194 44.833 62.8418 44.833 C62.8418 32.41845 62.8418 7.58935 62.8418 -4.8252 C64.61182 -4.8252 68.15186 -4.8252 69.92188 -4.8252 C69.92188 11.8374 69.92188 45.1626 69.92188 61.8252 C68.0542 61.8252 64.31885 61.8252 62.45117 61.8252 C56.83594 48.48291 45.60546 21.79834 39.99023 8.45605 C39.91699 8.45605 39.77051 8.45605 39.69727 8.45605 C34.06983 21.79834 22.81494 48.48291 17.1875 61.8252 C15.31982 61.8252 11.58447 61.8252 9.7168 61.8252 C9.7168 45.1626 9.7168 11.8374 9.7168 -4.8252 C11.48682 -4.8252 15.02686 -4.8252 16.79688 -4.8252 z" />
<glyph unicode="N" horiz-adv-x="69.92188" d="M6.83594 -6.72949 C9.00879 -6.72949 13.35449 -6.72949 15.52734 -6.72949 C15.52734 7.17432 15.52734 34.98193 15.52734 48.88574 C16.5039 48.88574 18.45703 48.88574 19.43359 48.88574 C16.65039 51.57129 11.08398 56.94238 8.30078 59.62793 C19.86084 43.03858 42.98096 9.85987 54.54102 -6.72949 C56.67725 -6.72949 60.94971 -6.72949 63.08594 -6.72949 C63.08594 10.88526 63.08594 46.11474 63.08594 63.72949 C60.91309 63.72949 56.56738 63.72949 54.39453 63.72949 C54.39453 49.82568 54.39453 22.01807 54.39453 8.11426 C53.41797 8.11426 51.46484 8.11426 50.48828 8.11426 C53.27148 5.42871 58.83789 0.05762 61.62109 -2.62793 C50.06103 13.96142 26.94092 47.14013 15.38086 63.72949 C13.24463 63.72949 8.97217 63.72949 6.83594 63.72949 C6.83594 46.11474 6.83594 10.88526 6.83594 -6.72949 z" />
<glyph unicode="O" horiz-adv-x="73.14453" d="M36.62109 -7.90137 Q46.63086 -7.90137 53.88184 -3.45801 Q61.13281 0.98535 65.08789 9.13965 Q69.04297 17.29395 69.04297 28.47559 C69.04297 28.50814 69.04297 28.54883 69.04297 28.57324 Q69.04297 39.75489 65.08789 47.88477 Q61.13281 56.01465 53.85742 60.45801 Q46.58203 64.90137 36.62109 64.90137 Q26.66016 64.90137 19.36036 60.45801 Q12.06055 56.01465 8.05664 47.86035 Q4.10156 39.75489 4.10156 28.57324 C4.10156 28.54069 4.10156 28.5 4.10156 28.47559 Q4.10156 17.29395 8.05664 9.13965 Q12.01172 0.98535 19.28711 -3.45801 Q26.61133 -7.90136 36.62109 -7.90137 zM36.62109 0.2041 Q29.39453 0.2041 24.12109 3.6709 Q18.84766 7.1377 15.9668 13.48535 Q13.08594 19.83301 13.08594 28.47559 C13.08594 28.50814 13.08594 28.54883 13.08594 28.57324 Q13.08594 37.26465 15.9668 43.58789 Q18.84766 49.91113 24.12109 53.3291 Q29.44336 56.7959 36.62109 56.7959 Q43.79883 56.7959 49.07227 53.35352 Q54.3457 49.91113 57.17773 43.56348 Q60.05859 37.21582 60.05859 28.57324 C60.05859 28.54069 60.05859 28.5 60.05859 28.47559 Q60.05859 19.88184 57.22656 13.53418 Q54.39453 7.18653 49.12109 3.6709 Q43.89648 0.2041 36.62109 0.2041 z" />
<glyph unicode="P" horiz-adv-x="57.76367" d="M11.23047 18.41699 C16.40625 18.41699 26.75781 18.41699 31.93359 18.41699 Q38.57422 18.41699 43.65234 21.29785 Q48.73047 24.17871 51.61133 29.30567 Q54.54102 34.43262 54.54102 41.12207 C54.54102 41.15462 54.54102 41.19532 54.54102 41.21973 Q54.54102 47.90918 51.63574 52.9873 Q48.73047 58.06543 43.65234 60.89746 Q38.57422 63.72949 31.93359 63.72949 C25.03255 63.72949 16.40625 63.72949 11.23047 63.72949 C11.23047 61.77636 11.23047 57.87011 11.23047 55.91699 C15.84473 55.91699 25.07324 55.91699 29.6875 55.91699 Q37.25586 55.91699 41.40625 52.01074 Q45.55664 48.10449 45.55664 41.12207 C45.55664 41.08952 45.55664 41.04883 45.55664 41.02442 Q45.55664 34.09082 41.40625 30.16016 Q37.25586 26.22949 29.6875 26.22949 C23.53516 26.22949 15.84473 26.22949 11.23047 26.22949 C11.23047 24.27636 11.23047 20.37012 11.23047 18.41699 zM6.83594 -6.72949 C9.03321 -6.72949 13.42773 -6.72949 15.625 -6.72949 C15.625 10.88526 15.625 46.11474 15.625 63.72949 C13.42773 63.72949 9.03321 63.72949 6.83594 63.72949 C6.83594 46.11474 6.83594 10.88526 6.83594 -6.72949 z" />
<glyph unicode="Q" horiz-adv-x="73.14453" d="M36.62109 -4.50782 Q46.63086 -4.50782 53.88184 -0.06446 Q61.13281 4.3789 65.08789 12.5332 Q69.04297 20.6875 69.04297 31.86914 C69.04297 31.90169 69.04297 31.94238 69.04297 31.96679 Q69.04297 43.14844 65.08789 51.27832 Q61.13281 59.4082 53.85742 63.85156 Q46.58203 68.29492 36.62109 68.29492 Q26.66016 68.29492 19.36036 63.85156 Q12.06055 59.4082 8.05664 51.2539 Q4.10156 43.14844 4.10156 31.96679 C4.10156 31.93424 4.10156 31.89355 4.10156 31.86914 Q4.10156 20.6875 8.05664 12.5332 Q12.01172 4.3789 19.28711 -0.06446 Q26.61133 -4.50781 36.62109 -4.50782 zM36.62109 3.59765 Q29.39453 3.59765 24.12109 7.06445 Q18.84766 10.53125 15.9668 16.8789 Q13.13477 23.22656 13.13477 31.86914 C13.13477 31.90169 13.13477 31.94238 13.13477 31.96679 Q13.13477 40.6582 16.01562 46.98144 Q18.89648 53.30468 24.16992 56.72265 Q29.44336 60.18945 36.62109 60.18945 Q43.79883 60.18945 49.04786 56.74707 Q54.29688 53.30468 57.12891 46.95703 Q60.00977 40.60937 60.00977 31.96679 C60.00977 31.93424 60.00977 31.89355 60.00977 31.86914 Q60.00977 23.27539 57.17773 16.92773 Q54.3457 10.58008 49.12109 7.06445 Q43.89648 3.59765 36.62109 3.59765 zM55.71289 -11.29492 C58.17871 -11.29492 63.11035 -11.29492 65.57617 -11.29492 C60.46143 -4.26367 50.23194 9.79883 45.11719 16.83008 C42.65137 16.83008 37.71973 16.83008 35.25391 16.83008 C40.36865 9.79883 50.59814 -4.26367 55.71289 -11.29492 z" />
<glyph unicode="R" horiz-adv-x="59.91211" d="M6.83594 -6.72949 C9.03321 -6.72949 13.42773 -6.72949 15.625 -6.72949 C15.625 0.24072 15.625 14.18115 15.625 21.15137 C19.70215 21.15137 27.85644 21.15137 31.93359 21.15137 Q32.08008 21.15137 32.20215 21.15137 Q32.32422 21.15137 32.4707 21.15137 C37.5 11.85775 43.78662 0.24072 47.55859 -6.72949 C50.13428 -6.72949 55.28564 -6.72949 57.86133 -6.72949 C53.78418 0.58252 45.62988 15.20655 41.55273 22.51856 Q48.14453 24.61817 51.92871 29.96485 Q55.71289 35.31153 55.71289 42.63574 C55.71289 42.66829 55.71289 42.70898 55.71289 42.7334 Q55.71289 49.08106 52.92969 53.79297 Q50.14648 58.50489 45.06836 61.09278 Q40.03906 63.72949 33.25195 63.72949 C24.44661 63.72949 13.43994 63.72949 6.83594 63.72949 C6.83594 46.11474 6.83594 10.88526 6.83594 -6.72949 zM15.625 28.91504 C15.625 35.66553 15.625 49.1665 15.625 55.91699 C19.73877 55.91699 27.96631 55.91699 32.08008 55.91699 Q38.86719 55.91699 42.74903 52.37695 Q46.63086 48.83692 46.63086 42.53809 C46.63086 42.50554 46.63086 42.46484 46.63086 42.44043 Q46.63086 35.94629 42.94434 32.43066 Q39.25781 28.91504 32.4707 28.91504 C26.85547 28.91504 19.83643 28.91504 15.625 28.91504 z" />
<glyph unicode="S" horiz-adv-x="59.32617" d="M29.88281 -7.90137 Q37.93945 -7.90137 43.77441 -5.41113 Q49.60938 -2.9209 52.73438 1.66895 Q55.9082 6.25879 55.9082 12.50879 C55.9082 12.52507 55.9082 12.54541 55.9082 12.55762 Q55.9082 20.61426 51.07421 25.27734 Q46.24023 29.94043 35.40039 32.33301 C32.79622 32.90267 29.54102 33.61474 27.58789 34.04199 Q20.70312 35.55567 17.43164 38.33887 Q14.16016 41.12207 14.16016 45.41895 C14.16016 45.43523 14.16016 45.45557 14.16016 45.46778 Q14.16016 48.88574 16.08887 51.4248 Q18.01758 53.96387 21.5332 55.37989 Q25.04883 56.7959 29.73633 56.7959 Q34.22852 56.7959 37.62207 55.42872 Q41.01562 54.06153 43.11523 51.52246 Q45.21484 48.9834 45.75195 45.37012 C45.7845 45.14226 45.8252 44.85743 45.84961 44.68653 C48.04688 44.68653 52.4414 44.68653 54.63867 44.68653 C54.62646 44.86964 54.60205 45.23585 54.58984 45.41895 Q54.19922 51.18067 50.95215 55.5752 Q47.70508 59.96973 42.28516 62.41113 Q36.86523 64.90137 29.98047 64.90137 Q22.75391 64.90137 17.16309 62.38672 Q11.57227 59.87207 8.39844 55.42871 Q5.22461 51.03418 5.17578 45.22363 C5.17578 45.20736 5.17578 45.18701 5.17578 45.17481 Q5.17578 37.45996 10.13184 32.69922 Q15.08789 27.93848 25.39062 25.64356 C27.99479 25.0739 31.25 24.36182 33.20312 23.93457 Q40.47852 22.32324 43.70118 19.54004 Q46.92383 16.75684 46.92383 12.11817 C46.92383 12.10189 46.92383 12.08155 46.92383 12.06934 Q46.92383 8.45606 44.89746 5.77051 Q42.87109 3.08496 39.16016 1.62012 Q35.44922 0.2041 30.37109 0.2041 Q25.29297 0.2041 21.41114 1.5957 Q17.5293 2.98731 15.18555 5.52637 Q12.8418 8.11426 12.30469 11.62989 C12.27214 11.85775 12.23145 12.14258 12.20703 12.31348 C10.00977 12.31348 5.61523 12.31348 3.41797 12.31348 C3.43018 12.14258 3.45459 11.80079 3.4668 11.62989 Q3.90625 5.62403 7.2998 1.2295 Q10.69336 -3.16504 16.45508 -5.55761 Q22.26562 -7.90136 29.88281 -7.90137 z" />
<glyph unicode="T" horiz-adv-x="58.10547" d="M24.6582 -6.72949 C26.85547 -6.72949 31.25 -6.72949 33.44727 -6.72949 C33.44727 8.90772 33.44727 40.18213 33.44727 55.81934 C39.00147 55.81934 50.10986 55.81934 55.66406 55.81934 C55.66406 57.79688 55.66406 61.75195 55.66406 63.72949 C42.3584 63.72949 15.74707 63.72949 2.44141 63.72949 C2.44141 61.75195 2.44141 57.79688 2.44141 55.81934 C7.99561 55.81934 19.104 55.81934 24.6582 55.81934 C24.6582 40.18213 24.6582 8.90772 24.6582 -6.72949 z" />
<glyph unicode="U" horiz-adv-x="69.62891" d="M34.86328 -7.31543 Q43.60352 -7.31543 49.85352 -4.04395 Q56.10352 -0.77246 59.42383 5.03809 Q62.79297 10.89747 62.79297 18.56348 C62.79297 33.81413 62.79297 52.87744 62.79297 64.31543 C60.59571 64.31543 56.20117 64.31543 54.00391 64.31543 C54.00391 53.02393 54.00391 30.44092 54.00391 19.14942 Q54.00391 11.04395 49.02344 5.917 Q44.04297 0.79004 34.86328 0.79004 Q25.73242 0.79004 20.67871 5.917 Q15.625 11.04395 15.625 19.14942 C15.625 34.20476 15.625 53.02393 15.625 64.31543 C13.42773 64.31543 9.03321 64.31543 6.83594 64.31543 C6.83594 52.87744 6.83594 30.00147 6.83594 18.56348 Q6.83594 10.89747 10.20508 5.0625 Q13.57422 -0.77246 19.82422 -4.04394 Q26.12305 -7.31542 34.86328 -7.31543 z" />
<glyph unicode="V" horiz-adv-x="63.08594" d="M27.19727 -6.72949 C29.37012 -6.72949 33.71582 -6.72949 35.88867 -6.72949 C42.38281 10.88526 55.37109 46.11474 61.86523 63.72949 C59.5581 63.72949 54.94385 63.72949 52.63672 63.72949 C47.3877 48.75147 36.88964 18.79542 31.64062 3.81739 C31.59179 3.81739 31.49414 3.81739 31.44531 3.81739 C26.19629 18.79542 15.69824 48.75147 10.44922 63.72949 C8.14209 63.72949 3.52783 63.72949 1.2207 63.72949 C7.71484 46.11474 20.70313 10.88526 27.19727 -6.72949 z" />
<glyph unicode="W" horiz-adv-x="83.74023" d="M27.39258 -4.8252 C30.96924 8.62695 38.12256 35.53125 41.69922 48.98339 C41.78467 48.98339 41.95557 48.98339 42.04102 48.98339 C45.61768 35.53125 52.771 8.62695 56.34766 -4.8252 C58.05664 -4.8252 61.47461 -4.8252 63.18359 -4.8252 C67.81006 11.8374 77.06299 45.1626 81.68945 61.8252 C79.39453 61.8252 74.80469 61.8252 72.50977 61.8252 C69.32373 48.23877 62.95166 21.06592 59.76562 7.4795 C59.65576 7.4795 59.43603 7.4795 59.32617 7.4795 C55.96924 21.06592 49.25537 48.23877 45.89844 61.8252 C43.88428 61.8252 39.85596 61.8252 37.8418 61.8252 C34.48487 48.23877 27.77099 21.06592 24.41406 7.4795 C24.3042 7.4795 24.08447 7.4795 23.97461 7.4795 C20.78857 21.06592 14.41651 48.23877 11.23047 61.8252 C8.93555 61.8252 4.3457 61.8252 2.05078 61.8252 C6.67725 45.1626 15.93018 11.8374 20.55664 -4.8252 C22.26562 -4.8252 25.6836 -4.8252 27.39258 -4.8252 z" />
<glyph unicode="X" horiz-adv-x="57.03125" d="M55.27344 61.82519 C53.02734 61.8252 48.53516 61.8252 46.28906 61.8252 C42.0166 55.12353 33.47168 41.72022 29.19922 35.01855 C29.08936 35.01855 28.86963 35.01855 28.75977 35.01855 C24.43848 41.72022 15.7959 55.12353 11.47461 61.8252 C9.13086 61.8252 4.44336 61.8252 2.09961 61.8252 C7.50732 53.56103 18.32276 37.03272 23.73047 28.76855 C18.2373 20.37012 7.25097 3.57324 1.75781 -4.8252 C3.97949 -4.8252 8.42285 -4.8252 10.64453 -4.8252 C14.9414 1.87646 23.53515 15.27978 27.83203 21.98145 C27.94189 21.98145 28.16162 21.98145 28.27148 21.98145 C32.53174 15.27978 41.05224 1.87646 45.3125 -4.8252 C47.68066 -4.8252 52.41699 -4.8252 54.78516 -4.8252 C49.34082 3.41455 38.45215 19.89404 33.00781 28.13378 C38.57422 36.55664 49.70703 53.40234 55.27344 61.8252 z" />
<glyph unicode="Y" horiz-adv-x="55.22461" d="M31.49414 -4.8252 C31.49414 2.48682 31.49414 17.11084 31.49414 24.42286 C37.06055 33.77344 48.19336 52.47461 53.75977 61.8252 C51.52588 61.8252 47.05811 61.8252 44.82422 61.8252 C40.57617 54.37891 32.08008 39.48632 27.83203 32.04003 C27.72217 32.04003 27.50244 32.04003 27.39258 32.04003 C23.14453 39.48632 14.64844 54.37891 10.40039 61.8252 C8.1665 61.8252 3.69873 61.8252 1.46484 61.8252 C7.03125 52.47461 18.16406 33.77344 23.73047 24.42286 C23.73047 17.11084 23.73047 2.48682 23.73047 -4.8252 C25.67139 -4.8252 29.55322 -4.8252 31.49414 -4.8252 z" />
<glyph unicode="Z" horiz-adv-x="58.34961" d="M5.37109 -4.8252 C17.05322 -4.8252 40.41748 -4.8252 52.09961 -4.8252 C52.09961 -3.06738 52.09961 0.44824 52.09961 2.20605 C42.89551 2.20605 24.4873 2.20605 15.2832 2.20605 C15.2832 2.32812 15.2832 2.57227 15.2832 2.69434 C24.27978 16.09766 42.27295 42.9043 51.26953 56.30761 C51.26953 57.68701 51.26953 60.4458 51.26953 61.8252 C40.12451 61.8252 17.83447 61.8252 6.68945 61.8252 C6.68945 60.06738 6.68945 56.55176 6.68945 54.79395 C15.41748 54.79395 32.87353 54.79395 41.60156 54.79395 C41.60156 54.67188 41.60156 54.42773 41.60156 54.30566 C32.54394 40.90234 14.42871 14.0957 5.37109 0.69238 C5.37109 -0.68701 5.37109 -3.4458 5.37109 -4.8252 z" />
<glyph unicode="a" horiz-adv-x="50.19531" d="M20.36133 2.13281 Q23.7793 2.13282 26.83105 3.28027 Q29.88281 4.42773 32.32422 6.47852 Q34.76562 8.57812 36.23047 11.36132 C36.29557 11.36132 36.37695 11.36132 36.42578 11.36132 C36.42578 9.29834 36.42578 5.17236 36.42578 3.10938 C38.5498 3.10938 42.79786 3.10938 44.92188 3.10938 C44.92188 11.88623 44.92188 29.43994 44.92188 38.2168 Q44.92188 43.29493 42.5293 47.03027 Q40.13672 50.76562 35.74219 52.81641 Q31.39648 54.86718 25.39062 54.86718 Q19.43359 54.86718 15.08789 52.84082 Q10.74219 50.81445 8.25195 47.39648 Q5.81055 43.97852 5.41992 39.7793 C5.40364 39.60026 5.3833 39.37646 5.37109 39.24218 C7.42187 39.24218 11.52344 39.24218 13.57422 39.24218 C13.59864 39.35205 13.64747 39.57178 13.67188 39.68165 Q14.4043 43.0996 17.40723 45.22363 Q20.41016 47.34766 25.29297 47.34766 Q30.61523 47.34766 33.52051 44.68652 Q36.42578 42.0254 36.42578 37.38671 C36.42578 32.38997 36.42578 26.14404 36.42578 22.39648 Q36.42578 18.73438 34.5459 15.80468 Q32.66602 12.875 29.44336 11.16602 Q26.26953 9.50585 22.26562 9.50585 Q17.67578 9.50585 14.91699 11.6543 Q12.1582 13.80273 12.1582 17.46484 C12.1582 17.49739 12.1582 17.53808 12.1582 17.5625 Q12.1582 21.12695 14.96582 23.27539 Q17.77344 25.42382 22.85156 25.7168 C28.79232 26.07487 36.21826 26.52246 40.67383 26.79102 C40.67383 28.43897 40.67383 31.73487 40.67383 33.38282 C35.97412 33.11426 26.57471 32.57715 21.875 32.30859 Q13.13477 31.82032 8.30079 27.93848 Q3.4668 24.05665 3.4668 17.5625 C3.4668 17.52994 3.4668 17.48926 3.4668 17.46484 Q3.4668 12.875 5.59082 9.4082 Q7.71484 5.94141 11.52344 4.0371 Q15.33203 2.13282 20.36133 2.13282 z" />
<glyph unicode="b" horiz-adv-x="55.37109" d="M30.76172 -7.21777 Q37.25586 -7.21777 42.11426 -3.9707 Q46.97266 -0.72363 49.6582 5.18457 Q52.34375 11.1416 52.34375 19.14941 C52.34375 19.16569 52.34375 19.18603 52.34375 19.19824 Q52.34375 27.20606 49.63379 33.11426 Q46.92383 39.02246 42.08984 42.24512 Q37.30469 45.5166 30.9082 45.5166 Q25.53711 45.5166 21.28906 42.97754 Q17.04102 40.43848 14.64844 36.04395 C14.58333 36.04395 14.50195 36.04395 14.45312 36.04395 C14.45312 43.0874 14.45312 57.17431 14.45312 64.21777 C12.3291 64.21777 8.08105 64.21777 5.95703 64.21777 C5.95703 46.60303 5.95703 11.37353 5.95703 -6.24121 C8.08105 -6.24121 12.3291 -6.24121 14.45312 -6.24121 C14.45312 -4.09277 14.45312 0.2041 14.45312 2.35254 C14.50195 2.35254 14.59961 2.35254 14.64844 2.35254 Q17.04102 -2.09082 21.16699 -4.6543 Q25.29297 -7.21777 30.76172 -7.21777 zM29.10156 0.30176 Q24.80469 0.30176 21.48438 2.64551 Q18.16406 4.98926 16.25977 9.23731 Q14.4043 13.48535 14.4043 19.14941 C14.4043 19.16569 14.4043 19.18603 14.4043 19.19824 Q14.4043 24.86231 16.3086 29.08594 Q18.21289 33.30957 21.48438 35.65332 Q24.80469 37.99707 29.10156 37.99707 Q33.59375 37.99707 36.86523 35.70215 Q40.13672 33.40723 41.89453 29.20801 Q43.65234 25.00879 43.65234 19.19824 C43.65234 19.18196 43.65234 19.16162 43.65234 19.14941 Q43.65234 13.33887 41.89453 9.09082 Q40.13672 4.84277 36.86523 2.54785 Q33.59375 0.30176 29.10156 0.30176 z" />
<glyph unicode="c" horiz-adv-x="50.09766" d="M26.5625 2.13281 Q32.32422 2.13282 36.84082 4.40332 Q41.35742 6.67382 44.18945 10.53125 Q47.07031 14.4375 47.75391 19.27148 C47.77018 19.38542 47.79053 19.52783 47.80273 19.61329 C45.71533 19.61329 41.54052 19.61329 39.45312 19.61329 C39.42871 19.51563 39.37988 19.32031 39.35547 19.22266 Q38.28125 14.9746 35.03418 12.31348 Q31.78711 9.65234 26.5625 9.65234 Q22.16797 9.65234 18.82324 11.89844 Q15.47852 14.14454 13.57422 18.34375 Q11.71875 22.54296 11.71875 28.45118 C11.71875 28.46745 11.71875 28.48779 11.71875 28.5 Q11.71875 34.26171 13.57422 38.48535 Q15.42969 42.70898 18.75 45.00391 Q22.07031 47.34766 26.46484 47.34766 Q32.08008 47.34766 35.22949 44.4668 Q38.37891 41.58593 39.30664 37.77734 C39.33919 37.64714 39.37989 37.48437 39.4043 37.38671 C41.47949 37.38671 45.62989 37.38671 47.70508 37.38671 C47.69287 37.48437 47.66846 37.67969 47.65625 37.77734 Q47.11914 42.12305 44.50684 46.0293 Q41.89453 49.93555 37.35352 52.37695 Q32.8125 54.86718 26.46484 54.86718 Q19.43359 54.86718 14.16015 51.64453 Q8.88672 48.42188 5.95703 42.51368 Q3.02734 36.60546 3.02734 28.59766 C3.02734 28.58138 3.02734 28.56103 3.02734 28.54882 Q3.02734 20.49218 5.9082 14.55957 Q8.78906 8.62695 14.0625 5.35546 Q19.38477 2.13282 26.5625 2.13282 z" />
<glyph unicode="d" horiz-adv-x="55.37109" d="M24.60938 -7.21777 Q30.07812 -7.21777 34.2041 -4.6543 Q38.33008 -2.09082 40.72266 2.35254 C40.78776 2.35254 40.86914 2.35254 40.91797 2.35254 C40.91797 0.2041 40.91797 -4.09277 40.91797 -6.24121 C43.04199 -6.24121 47.29004 -6.24121 49.41406 -6.24121 C49.41406 11.37353 49.41406 46.60303 49.41406 64.21777 C47.29004 64.21777 43.04199 64.21777 40.91797 64.21777 C40.91797 57.17431 40.91797 43.0874 40.91797 36.04395 C40.86914 36.04395 40.77149 36.04395 40.72266 36.04395 Q38.33008 40.43848 34.08203 42.97754 Q29.83398 45.5166 24.46289 45.5166 Q18.11523 45.5166 13.28125 42.26953 Q8.44727 39.02246 5.71289 33.11426 Q3.02734 27.20606 3.02734 19.19824 C3.02734 19.18196 3.02734 19.16162 3.02734 19.14941 Q3.02734 11.1416 5.71289 5.20898 Q8.39844 -0.72363 13.23242 -3.99512 Q18.11523 -7.21777 24.60938 -7.21777 zM26.26953 0.30176 Q21.77734 0.30176 18.50585 2.57227 Q15.23437 4.84277 13.47656 9.09082 Q11.71875 13.33887 11.71875 19.14941 C11.71875 19.16569 11.71875 19.18603 11.71875 19.19824 Q11.71875 25.00879 13.47656 29.20801 Q15.23438 33.40723 18.50586 35.70215 Q21.77734 37.99707 26.26953 37.99707 Q30.56641 37.99707 33.8623 35.65332 Q37.1582 33.30957 39.0625 29.06152 Q40.9668 24.86231 40.9668 19.19824 C40.9668 19.18196 40.9668 19.16162 40.9668 19.14941 Q40.9668 13.48535 39.08691 9.2373 Q37.20703 4.98926 33.88672 2.64551 Q30.56641 0.30176 26.26953 0.30176 z" />
<glyph unicode="e" horiz-adv-x="51.2207" d="M26.41602 2.13281 Q30.56641 2.13282 34.13086 3.28027 Q37.69531 4.42773 40.47852 6.47852 Q43.26172 8.57812 45.04395 11.3125 Q46.82617 14.04688 47.46094 17.17188 C47.49349 17.33464 47.53418 17.53809 47.55859 17.66016 C45.47119 17.66016 41.29638 17.66016 39.20898 17.66016 C39.17236 17.55029 39.09912 17.33057 39.0625 17.2207 Q38.33008 15.02343 36.62109 13.31445 Q34.91211 11.60546 32.37305 10.62891 Q29.83398 9.65234 26.61133 9.65234 Q22.02148 9.65234 18.65234 11.67871 Q15.2832 13.70507 13.42773 17.51368 Q11.62109 21.32227 11.62109 26.69335 C11.62109 27.78385 11.62109 29.14697 11.62109 29.96484 Q11.62109 35.62891 13.47656 39.51074 Q15.33203 43.39257 18.55469 45.3457 Q21.77734 47.34766 25.83008 47.34766 Q29.88281 47.34766 33.00781 45.46777 Q36.13281 43.5879 37.89062 39.73046 Q39.69727 35.87305 39.69727 29.96484 C39.69727 28.87435 39.69727 27.51123 39.69727 26.69335 C40.77149 28.23144 42.91992 31.30762 43.99414 32.8457 C34.81445 32.8457 16.45508 32.8457 7.27539 32.8457 C7.27539 31.18555 7.27539 27.86523 7.27539 26.20507 C17.50488 26.20507 37.96387 26.20507 48.19336 26.20507 C48.19336 26.98632 48.19336 28.54882 48.19336 29.33007 Q48.19336 36.94727 45.50781 42.70898 Q42.82227 48.4707 37.79297 51.64454 Q32.8125 54.86718 25.87891 54.86718 Q18.94531 54.86718 13.81836 51.52246 Q8.69141 48.17773 5.85938 42.17188 Q3.02734 36.21484 3.02734 28.35352 C3.02734 28.33724 3.02734 28.31689 3.02734 28.30468 Q3.02734 20.3457 5.83496 14.46191 Q8.64258 8.57812 13.86719 5.35546 Q19.14062 2.13282 26.41602 2.13282 z" />
<glyph unicode="f" horiz-adv-x="30.37109" d="M8.25195 -7.21778 C10.37597 -7.21777 14.62403 -7.21777 16.74805 -7.21777 C16.74805 3.71973 16.74805 25.59473 16.74805 36.53223 C19.33594 36.53223 24.51172 36.53223 27.09961 36.53223 C27.09961 38.29004 27.09961 41.80566 27.09961 43.56348 C24.4873 43.56348 19.2627 43.56348 16.65039 43.56348 C16.65039 45.11377 16.65039 48.21435 16.65039 49.76464 Q16.65039 53.52441 18.40821 55.35547 Q20.16602 57.18652 23.68164 57.18652 Q24.6582 57.18652 25.61035 57.1377 Q26.5625 57.08886 27.34375 56.99121 C27.34375 59.28613 27.34375 62.15478 27.34375 63.87598 Q26.41602 64.02246 25 64.12011 Q23.58398 64.21777 22.16797 64.21777 Q15.13672 64.21777 11.69434 60.67773 Q8.25195 57.1377 8.25195 49.81348 C8.25195 47.73014 8.25195 45.12598 8.25195 43.56348 C6.48193 43.56348 2.9419 43.56348 1.17188 43.56348 C1.17188 41.80566 1.17188 38.29004 1.17188 36.53223 C2.9419 36.53223 6.48193 36.53223 8.25195 36.53223 C8.25195 25.59473 8.25195 3.71973 8.25195 -7.21777 z" />
<glyph unicode="g" horiz-adv-x="54.88281" d="M27.00195 -6.41211 Q33.88672 -6.41211 38.91602 -3.99512 Q43.94531 -1.57812 46.67969 2.81641 Q49.41406 7.16211 49.41406 13.07032 C49.41406 29.5254 49.41406 50.09424 49.41406 62.43555 C47.29004 62.43555 43.04199 62.43555 40.91797 62.43555 C40.91797 60.28711 40.91797 55.99024 40.91797 53.8418 C40.86914 53.8418 40.77149 53.8418 40.72266 53.8418 Q39.16016 56.67383 36.79199 58.82227 Q34.42383 60.97071 31.39648 62.19141 Q28.36914 63.41211 24.75586 63.41211 Q18.31055 63.41211 13.42773 60.18945 Q8.54492 56.9668 5.76172 51.10742 Q3.02734 45.29688 3.02734 37.38672 C3.02734 37.37044 3.02734 37.3501 3.02734 37.33789 Q3.02734 29.42774 5.7373 23.54395 Q8.44727 17.66016 13.28125 14.38868 Q18.16406 11.16602 24.56055 11.16602 Q28.22266 11.16602 31.32324 12.31348 Q34.42383 13.46094 36.81641 15.51172 Q39.20898 17.5625 40.72266 20.39453 C40.78776 20.39453 40.86914 20.39453 40.91797 20.39453 C40.91797 18.77099 40.91797 15.52392 40.91797 13.90039 Q40.91797 7.99219 37.25586 4.5498 Q33.59375 1.10742 26.9043 1.10742 Q21.72852 1.10742 18.2373 2.69434 Q14.74609 4.28125 13.52539 7.01563 C13.46029 7.16211 13.37891 7.34522 13.33008 7.45508 C11.19385 7.45508 6.92139 7.45508 4.78516 7.45508 C4.80957 7.34522 4.8584 7.12549 4.88281 7.01563 Q5.71289 3.25586 8.56934 0.20411 Q11.42578 -2.84765 16.06445 -4.60547 Q20.75195 -6.41211 27.00195 -6.41211 zM26.41602 18.68555 Q21.92383 18.68555 18.60352 20.95606 Q15.2832 23.22657 13.47656 27.37696 Q11.71875 31.57618 11.71875 37.33789 C11.71875 37.35417 11.71875 37.37451 11.71875 37.38672 Q11.71875 43.05078 13.50097 47.20118 Q15.2832 51.35157 18.60352 53.59766 Q21.92383 55.89258 26.41602 55.89258 Q30.71289 55.89258 33.98438 53.59766 Q37.25586 51.30274 39.0625 47.15235 Q40.91797 43.00196 40.91797 37.38672 C40.91797 37.37044 40.91797 37.3501 40.91797 37.33789 Q40.91797 31.72266 39.08691 27.52344 Q37.25586 23.32422 33.98438 20.98047 Q30.76172 18.68555 26.41602 18.68555 z" />
<glyph unicode="h" horiz-adv-x="53.90625" d="M5.95703 -6.72949 C8.08105 -6.72949 12.3291 -6.72949 14.45312 -6.72949 C14.45312 0.68018 14.45312 15.49951 14.45312 22.90918 Q14.45312 27.25489 16.08886 30.52637 Q17.72461 33.79785 20.6543 35.65332 Q23.63281 37.50879 27.53906 37.50879 Q33.49609 37.50879 36.81641 33.65137 Q40.13672 29.79395 40.13672 22.90918 C40.13672 13.02962 40.13672 0.68018 40.13672 -6.72949 C42.26074 -6.72949 46.50879 -6.72949 48.63281 -6.72949 C48.63281 1.04639 48.63281 16.59815 48.63281 24.37403 Q48.63281 30.52637 46.33789 35.16504 Q44.04297 39.80371 39.94141 42.3916 Q35.88867 45.02832 30.46875 45.02832 Q24.80469 45.02832 20.75196 42.63575 Q16.69922 40.24317 14.64844 35.94629 C14.58333 35.94629 14.50195 35.94629 14.45312 35.94629 C14.45312 42.89209 14.45312 56.78369 14.45312 63.72949 C12.3291 63.72949 8.08105 63.72949 5.95703 63.72949 C5.95703 46.11474 5.95703 10.88526 5.95703 -6.72949 z" />
<glyph unicode="i" horiz-adv-x="20.60547" d="M6.05469 -6.50977 C8.17871 -6.50977 12.42676 -6.50977 14.55078 -6.50977 C14.55078 6.18555 14.55078 31.57617 14.55078 44.27148 C12.42676 44.27148 8.17871 44.27148 6.05469 44.27148 C6.05469 31.57617 6.05469 6.18555 6.05469 -6.50977 zM10.30273 52.86523 Q12.54883 52.86523 14.08691 54.42773 Q15.625 55.99023 15.625 58.1875 Q15.625 60.43359 14.08691 61.97168 Q12.54883 63.50977 10.30273 63.50977 Q8.10547 63.50977 6.54297 61.97168 Q4.98047 60.43359 4.98047 58.1875 Q4.98047 55.99023 6.54297 54.42773 Q8.10547 52.86523 10.30273 52.86523 z" />
<glyph unicode="j" horiz-adv-x="20.50781" d="M-1.26953 -15.0791 Q6.88477 -15.0791 10.66895 -11.44141 Q14.45312 -7.80371 14.45312 -0.08887 C14.45312 17.55436 14.45312 39.6084 14.45312 52.84082 C12.3291 52.84082 8.08105 52.84082 5.95703 52.84082 C5.95703 39.58398 5.95703 13.07031 5.95703 -0.18652 Q5.95703 -4.43457 4.27246 -5.99707 Q2.58789 -7.55957 -1.5625 -7.55957 Q-1.9043 -7.55957 -2.22168 -7.55957 Q-2.53906 -7.55957 -2.88086 -7.55957 C-2.88086 -10.0498 -2.88086 -13.1626 -2.88086 -15.03027 Q-2.49023 -15.0791 -2.0752 -15.0791 Q-1.66016 -15.0791 -1.26953 -15.0791 zM10.20508 61.43457 Q12.45117 61.43457 13.98926 62.99707 Q15.52734 64.55957 15.52734 66.75684 Q15.52734 69.00293 13.98926 70.54102 Q12.45117 72.0791 10.20508 72.0791 Q8.00781 72.0791 6.44531 70.54102 Q4.88281 69.00293 4.88281 66.75684 Q4.88281 64.55957 6.44531 62.99707 Q8.00781 61.43457 10.20508 61.43457 z" />
<glyph unicode="k" horiz-adv-x="48.53516" d="M6.20117 -6.72949 C8.3252 -6.72949 12.57324 -6.72949 14.69727 -6.72949 C14.69727 10.88526 14.69727 46.11474 14.69727 63.72949 C12.57324 63.72949 8.3252 63.72949 6.20117 63.72949 C6.20117 46.11474 6.20117 10.88526 6.20117 -6.72949 zM38.28125 -6.72949 C40.74707 -6.72949 45.67871 -6.72949 48.14453 -6.72949 C42.26074 0.75342 30.49317 15.71924 24.60938 23.20215 C23.19336 21.78614 20.36133 18.95411 18.94531 17.53809 C23.77929 11.47119 33.44727 -0.6626 38.28125 -6.72949 zM12.79297 10.60449 C15.271 12.97266 20.22705 17.70898 22.70508 20.07715 C22.87598 20.07715 23.21777 20.07715 23.38867 20.07715 C29.40674 26.0708 41.44287 38.05811 47.46094 44.05176 C44.88526 44.05176 39.73388 44.05176 37.1582 44.05176 C31.59179 38.44873 20.45898 27.24268 14.89258 21.63965 C14.36768 21.63965 13.31787 21.63965 12.79297 21.63965 C12.79297 18.88086 12.79297 13.36328 12.79297 10.60449 z" />
<glyph unicode="l" horiz-adv-x="20.41016" d="M5.95703 -6.72949 C8.08105 -6.72949 12.3291 -6.72949 14.45312 -6.72949 C14.45312 10.88526 14.45312 46.11474 14.45312 63.72949 C12.3291 63.72949 8.08105 63.72949 5.95703 63.72949 C5.95703 46.11474 5.95703 10.88526 5.95703 -6.72949 z" />
<glyph unicode="m" horiz-adv-x="80.32227" d="M5.51758 2.62109 C7.6416 2.62109 11.88965 2.62109 14.01367 2.62109 C14.01367 10.58008 14.01367 26.49805 14.01367 34.45704 Q14.01367 38.02148 15.52735 40.80469 Q17.04102 43.5879 19.62891 45.19921 Q22.26562 46.85938 25.63477 46.85938 Q30.37109 46.85938 33.20312 44.07618 Q36.03516 41.29297 36.03516 36.6543 C36.03516 25.30989 36.03516 11.1294 36.03516 2.62109 C38.15918 2.62109 42.40723 2.62109 44.53125 2.62109 C44.53125 10.68994 44.53125 26.82764 44.53125 34.89648 Q44.53125 38.36329 45.99609 41.07325 Q47.46094 43.7832 50.04883 45.29688 Q52.63672 46.85938 56.00586 46.85938 Q61.03516 46.85938 63.79395 43.90527 Q66.55273 40.95118 66.55273 35.72656 C66.55273 24.69141 66.55273 10.89746 66.55273 2.62109 C68.67676 2.62109 72.9248 2.62109 75.04883 2.62109 C75.04883 11.38574 75.04883 28.91504 75.04883 37.67968 Q75.04883 42.75781 72.99805 46.49316 Q70.94727 50.22852 67.23633 52.2793 Q63.52539 54.37891 58.49609 54.37891 Q54.93164 54.37891 51.83105 53.20703 Q48.73047 52.03516 46.33789 49.8379 Q43.99414 47.68945 42.57812 44.61329 C42.51302 44.61329 42.43164 44.61329 42.38281 44.61329 Q41.30859 47.73829 39.25781 49.91114 Q37.20703 52.08398 34.375 53.20704 Q31.5918 54.37891 28.125 54.37891 Q23.24219 54.37891 19.58008 52.05957 Q15.91797 49.74023 14.20898 45.98047 C14.14388 45.98047 14.0625 45.98047 14.01367 45.98047 C14.01367 47.83594 14.01367 51.54688 14.01367 53.40234 C11.88965 53.40234 7.6416 53.40234 5.51758 53.40234 C5.51758 40.70703 5.51758 15.31641 5.51758 2.62109 z" />
<glyph unicode="n" horiz-adv-x="52.68555" d="M5.51758 2.62109 C7.6416 2.62109 11.88965 2.62109 14.01367 2.62109 C14.01367 10.0918 14.01367 25.0332 14.01367 32.50391 Q14.01367 36.84961 15.64941 40.07227 Q17.28516 43.29493 20.26367 45.05273 Q23.24219 46.85938 27.24609 46.85938 Q33.10547 46.85938 36.01074 43.56348 Q38.91602 40.26757 38.91602 34.06641 C38.91602 23.58464 38.91602 10.48242 38.91602 2.62109 C41.04004 2.62109 45.28809 2.62109 47.41211 2.62109 C47.41211 10.86084 47.41211 27.34033 47.41211 35.58007 Q47.41211 44.27148 42.79785 49.3252 Q38.18359 54.37891 29.83398 54.37891 Q24.07227 54.37891 20.16602 52.05957 Q16.25977 49.74023 14.20898 46.17579 C14.14388 46.17579 14.0625 46.17579 14.01367 46.17579 C14.01367 47.98243 14.01367 51.5957 14.01367 53.40234 C11.88965 53.40234 7.6416 53.40234 5.51758 53.40234 C5.51758 40.70703 5.51758 15.31641 5.51758 2.62109 z" />
<glyph unicode="o" horiz-adv-x="53.07617" d="M26.5625 2.13281 Q33.59375 2.13282 38.86719 5.35547 Q44.14062 8.57812 47.07031 14.48632 Q50.04883 20.39454 50.04883 28.5 C50.04883 28.53255 50.04883 28.57324 50.04883 28.59766 Q50.04883 36.70312 47.09472 42.58691 Q44.14062 48.4707 38.81836 51.64454 Q33.54492 54.86718 26.51367 54.86718 Q19.53125 54.86718 14.2334 51.66895 Q8.93555 48.4707 5.95703 42.5625 Q3.02734 36.70312 3.02734 28.59766 C3.02734 28.5651 3.02734 28.52441 3.02734 28.5 Q3.02734 20.44335 5.98145 14.51074 Q8.93555 8.57812 14.20898 5.35546 Q19.53125 2.13282 26.5625 2.13282 zM26.61133 9.65235 Q22.11914 9.65234 18.77441 11.87402 Q15.42969 14.0957 13.57422 18.29493 Q11.71875 22.54296 11.71875 28.5 C11.71875 28.53255 11.71875 28.57324 11.71875 28.59766 Q11.71875 34.55468 13.57422 38.72949 Q15.42969 42.9043 18.75 45.10157 Q22.11914 47.34766 26.51367 47.34766 Q31.00586 47.34766 34.35059 45.15039 Q37.69531 42.95312 39.50195 38.75391 Q41.35742 34.55468 41.35742 28.59766 C41.35742 28.5651 41.35742 28.52441 41.35742 28.5 Q41.35742 22.54296 39.52636 18.31934 Q37.69531 14.0957 34.375 11.8496 Q31.10352 9.65234 26.61133 9.65234 z" />
<glyph unicode="p" horiz-adv-x="54.93164" d="M5.51758 -5.92382 C7.6416 -5.92382 11.88965 -5.92382 14.01367 -5.92382 C14.01367 0.47266 14.01367 13.26562 14.01367 19.6621 C14.0625 19.6621 14.16015 19.6621 14.20898 19.6621 Q15.82031 16.73243 18.2373 14.6084 Q20.6543 12.48438 23.7793 11.3125 Q26.9043 10.18945 30.46875 10.18945 Q36.86523 10.18945 41.6748 13.43652 Q46.48438 16.68359 49.16992 22.5918 Q51.9043 28.5 51.9043 36.50782 C51.9043 36.52409 51.9043 36.54443 51.9043 36.55664 Q51.9043 44.56445 49.21875 50.49707 Q46.5332 56.42968 41.65039 59.65234 Q36.81641 62.92382 30.32227 62.92382 Q26.70898 62.92382 23.63281 61.75195 Q20.55664 60.58007 18.16406 58.43164 Q15.82031 56.33204 14.20898 53.35352 C14.14388 53.35352 14.0625 53.35352 14.01367 53.35352 C14.01367 55.50195 14.01367 59.79883 14.01367 61.94727 C11.88965 61.94727 7.6416 61.94727 5.51758 61.94727 C5.51758 44.97949 5.51758 11.04395 5.51758 -5.92382 zM28.66211 17.70899 Q24.36523 17.70898 21.06934 20.05273 Q17.77344 22.39648 15.86914 26.5957 Q13.96484 30.84375 13.96484 36.50782 C13.96484 36.52409 13.96484 36.54443 13.96484 36.55664 Q13.96484 42.26954 15.84472 46.49316 Q17.72461 50.7168 21.04492 53.06055 Q24.36523 55.4043 28.66211 55.4043 Q33.1543 55.4043 36.42579 53.13379 Q39.69727 50.86329 41.45508 46.61523 Q43.21289 42.41602 43.21289 36.55664 C43.21289 36.54036 43.21289 36.52002 43.21289 36.50782 Q43.21289 30.74609 41.45508 26.52246 Q39.69727 22.29882 36.42578 20.00391 Q33.1543 17.70898 28.66211 17.70898 z" />
<glyph unicode="q" horiz-adv-x="54.88281" d="M40.91797 -5.875 C43.04199 -5.875 47.29004 -5.875 49.41406 -5.875 C49.41406 11.09277 49.41406 45.02832 49.41406 61.99609 C47.29004 61.99609 43.04199 61.99609 40.91797 61.99609 C40.91797 59.84765 40.91797 55.55078 40.91797 53.40234 C40.86914 53.40234 40.77149 53.40234 40.72266 53.40234 Q39.16016 56.23437 36.79199 58.35839 Q34.42383 60.48242 31.39648 61.65429 Q28.36914 62.875 24.75586 62.875 Q18.31055 62.875 13.42773 59.62793 Q8.54492 56.38086 5.76172 50.52148 Q3.02734 44.66211 3.02734 36.70312 C3.02734 36.68684 3.02734 36.6665 3.02734 36.65429 Q3.02734 28.69531 5.7373 22.76269 Q8.44727 16.83007 13.28125 13.55859 Q18.16406 10.33593 24.56055 10.33593 Q28.22266 10.33593 31.32324 11.45898 Q34.42383 12.58203 36.81641 14.63281 Q39.20898 16.68359 40.72266 19.46679 C40.78776 19.46679 40.86914 19.46679 40.91797 19.46679 C40.91797 13.13134 40.91797 0.46045 40.91797 -5.875 zM26.41602 17.85546 Q21.92383 17.85547 18.60352 20.12598 Q15.2832 22.39648 13.47656 26.5957 Q11.71875 30.84375 11.71875 36.65429 C11.71875 36.67057 11.71875 36.69091 11.71875 36.70312 Q11.71875 42.41601 13.50097 46.59082 Q15.2832 50.76562 18.60352 53.06054 Q21.92383 55.35546 26.41602 55.35546 Q30.71289 55.35546 33.98438 53.03612 Q37.25586 50.71679 39.0625 46.51757 Q40.91797 42.36718 40.91797 36.70312 C40.91797 36.68684 40.91797 36.6665 40.91797 36.65429 Q40.91797 30.99023 39.08691 26.74219 Q37.25586 22.49414 33.98438 20.15039 Q30.76172 17.85546 26.41602 17.85546 z" />
<glyph unicode="r" horiz-adv-x="30.81055" d="M5.51758 2.62109 C7.6416 2.62109 11.88965 2.62109 14.01367 2.62109 C14.01367 10.45801 14.01367 26.13184 14.01367 33.96875 Q14.01367 37.82618 15.35645 40.58497 Q16.69922 43.34375 19.14062 44.80859 Q21.63086 46.27343 24.90234 46.27343 Q26.46484 46.27343 27.70996 46.12695 Q28.95508 45.98047 29.44336 45.78516 C29.44336 48.53581 29.44336 51.97412 29.44336 54.03711 Q28.95508 54.13477 28.05176 54.25684 Q27.14844 54.37891 26.02539 54.37891 Q21.72852 54.37891 18.60352 51.79102 Q15.47852 49.20312 14.20898 44.80859 C14.14388 44.80859 14.0625 44.80859 14.01367 44.80859 C14.01367 46.95703 14.01367 51.25391 14.01367 53.40234 C11.88965 53.40234 7.6416 53.40234 5.51758 53.40234 C5.51758 40.70703 5.51758 15.31641 5.51758 2.62109 z" />
<glyph unicode="s" horiz-adv-x="46.5332" d="M23.53516 2.13281 Q29.19922 2.13282 33.66699 4.06152 Q38.13477 5.99023 40.67383 9.4082 Q43.26172 12.82618 43.26172 17.26954 C43.26172 17.28581 43.26172 17.30615 43.26172 17.31835 Q43.26172 22.73829 40.13672 25.98536 Q37.01172 29.23243 29.29688 31.0879 C26.61133 31.73893 23.25439 32.55273 21.24023 33.04102 Q17.04102 34.06641 15.18555 35.87305 Q13.33008 37.67968 13.33008 40.26757 C13.33008 40.28385 13.33008 40.3042 13.33008 40.31641 Q13.33008 42.5625 14.52637 44.24707 Q15.72266 45.93165 17.96875 46.85938 Q20.21484 47.7871 23.29102 47.7871 Q28.02734 47.7871 30.78613 45.54102 Q33.54492 43.29493 34.0332 39.58398 C34.04948 39.47005 34.06982 39.32763 34.08203 39.24218 C36.1084 39.24218 40.16113 39.24218 42.1875 39.24218 C42.17529 39.40088 42.15088 39.71826 42.13867 39.87695 Q41.8457 44.125 39.47754 47.51855 Q37.10938 50.9121 32.95898 52.86523 Q28.85742 54.86718 23.29102 54.86718 Q17.82227 54.86718 13.59864 52.96289 Q9.375 51.05859 6.98242 47.68945 Q4.63867 44.32032 4.63867 39.92579 C4.63867 39.90951 4.63867 39.88916 4.63867 39.87695 Q4.63867 34.4082 8.15429 30.96582 Q11.66992 27.52343 18.84766 25.81445 C21.53321 25.16341 24.89014 24.34961 26.9043 23.86132 Q31.25 22.7871 32.91016 21.12695 Q34.57031 19.4668 34.57031 16.73243 C34.57031 16.71615 34.57031 16.6958 34.57031 16.68359 Q34.57031 14.38868 33.25195 12.70411 Q31.93359 11.01954 29.49219 10.0918 Q27.05078 9.2129 23.58398 9.2129 Q18.4082 9.2129 15.52734 11.33691 Q12.64648 13.46093 11.86523 17.26954 C11.83268 17.43229 11.79199 17.63575 11.76758 17.75782 C9.64355 17.75782 5.39551 17.75782 3.27148 17.75782 C3.28369 17.64795 3.3081 17.42822 3.32031 17.31835 Q3.85742 12.77734 6.37207 9.35938 Q8.88672 5.94141 13.23242 4.0371 Q17.57812 2.13282 23.53516 2.13282 z" />
<glyph unicode="t" horiz-adv-x="30.12695" d="M22.02148 -4.23925 Q23.29102 -4.23925 24.53614 -4.11718 Q25.78125 -3.99511 26.5625 -3.89747 C26.5625 -1.60254 26.5625 1.26611 26.5625 2.9873 Q26.02539 2.93848 25.31739 2.86523 Q24.60938 2.792 23.82812 2.792 Q20.41016 2.792 18.65235 4.23243 Q16.89453 5.67286 16.89453 9.72559 C16.89453 19.97949 16.89453 32.79688 16.89453 40.4873 C19.31152 40.4873 24.14551 40.4873 26.5625 40.4873 C26.5625 42.24512 26.5625 45.76074 26.5625 47.51855 C24.14551 47.51855 19.31152 47.51855 16.89453 47.51855 C16.89453 50.94873 16.89453 57.80908 16.89453 61.23925 C14.69727 61.23925 10.30273 61.23925 8.10547 61.23925 C8.10547 57.80908 8.10547 50.94873 8.10547 47.51855 C6.25 47.51855 2.53906 47.51855 0.68359 47.51855 C0.68359 45.76074 0.68359 42.24512 0.68359 40.4873 C2.53906 40.4873 6.25 40.4873 8.10547 40.4873 C8.10547 32.78467 8.10547 17.37939 8.10547 9.67675 Q8.10547 2.40137 11.57227 -0.91895 Q15.03906 -4.23925 22.02148 -4.23925 z" />
<glyph unicode="u" horiz-adv-x="52.68555" d="M22.85156 2.6211 Q28.66211 2.62109 32.54395 4.94043 Q36.42578 7.25977 38.47656 10.82421 C38.54167 10.82421 38.62305 10.82421 38.67188 10.82421 C38.67188 9.01757 38.67188 5.4043 38.67188 3.59766 C40.7959 3.59766 45.04395 3.59766 47.16797 3.59766 C47.16797 16.29297 47.16797 41.68359 47.16797 54.37891 C45.04395 54.37891 40.7959 54.37891 38.67188 54.37891 C38.67188 46.9082 38.67188 31.9668 38.67188 24.49609 Q38.67188 20.19921 37.03614 16.95214 Q35.40039 13.70507 32.42188 11.89843 Q29.44336 10.14062 25.43945 10.14062 Q19.58008 10.14062 16.6748 13.43652 Q13.76953 16.73243 13.76953 22.93359 C13.76953 33.41536 13.76953 46.51758 13.76953 54.37891 C11.64551 54.37891 7.39746 54.37891 5.27344 54.37891 C5.27344 46.13916 5.27344 29.65967 5.27344 21.41993 Q5.27344 15.6582 7.34864 11.43457 Q9.42383 7.21093 13.33008 4.91602 Q17.28516 2.62109 22.85156 2.62109 z" />
<glyph unicode="v" horiz-adv-x="48.29102" d="M19.82422 3.10938 C21.99707 3.10938 26.34277 3.10938 28.51562 3.10938 C33.17871 15.80469 42.50488 41.19531 47.16797 53.89062 C44.9585 53.89062 40.53955 53.89062 38.33008 53.89062 C34.81446 43.45361 27.78321 22.57959 24.26758 12.14257 C24.21875 12.14257 24.1211 12.14257 24.07227 12.14257 C20.56885 22.57959 13.56201 43.45361 10.05859 53.89062 C7.8247 53.89062 3.35694 53.89062 1.12305 53.89062 C5.79834 41.19531 15.14893 15.80469 19.82422 3.10938 z" />
<glyph unicode="w" horiz-adv-x="71.5332" d="M15.57617 3.10938 C17.73681 3.10938 22.05811 3.10938 24.21875 3.10938 C27.0752 12.93603 32.78809 32.58935 35.64453 42.41602 C35.69336 42.41602 35.79101 42.41602 35.83984 42.41602 C38.70849 32.58935 44.4458 12.93603 47.31445 3.10938 C49.4751 3.10938 53.79638 3.10938 55.95703 3.10938 C59.49707 15.80469 66.57715 41.19531 70.11719 53.89062 C68.01758 53.89062 63.81836 53.89062 61.71875 53.89062 C59.17969 43.56348 54.10156 22.90918 51.5625 12.58204 C51.51367 12.58204 51.41602 12.58204 51.36719 12.58204 C48.48633 22.90918 42.72461 43.56348 39.84375 53.89062 C37.79297 53.89062 33.6914 53.89062 31.64062 53.89062 C28.77197 43.56348 23.03467 22.90918 20.16602 12.58204 C20.11719 12.58204 20.01953 12.58204 19.9707 12.58204 C17.43164 22.90918 12.35351 43.56348 9.81445 53.89062 C7.70263 53.89062 3.479 53.89062 1.36719 53.89062 C4.91944 41.19531 12.02393 15.80469 15.57617 3.10938 z" />
<glyph unicode="x" horiz-adv-x="46.82617" d="M1.5625 3.10938 C3.91846 3.10938 8.63037 3.10938 10.98633 3.10938 C14.0503 7.94336 20.17822 17.61133 23.24219 22.44532 C23.29102 22.44532 23.38867 22.44532 23.4375 22.44532 C26.47705 17.61133 32.55615 7.94336 35.5957 3.10938 C37.95166 3.10938 42.66357 3.10938 45.01953 3.10938 C40.7959 9.54248 32.34863 22.40869 28.125 28.8418 C32.40967 35.104 40.979 47.62842 45.26367 53.89062 C42.89551 53.89062 38.15918 53.89062 35.79102 53.89062 C32.77588 49.12988 26.74561 39.6084 23.73047 34.84766 C23.68164 34.84766 23.58399 34.84766 23.53516 34.84766 C20.4834 39.6084 14.37988 49.12988 11.32812 53.89062 C8.95996 53.89062 4.22363 53.89062 1.85547 53.89062 C6.10352 47.54297 14.59961 34.84765 18.84766 28.5 C14.52637 22.15234 5.88379 9.45703 1.5625 3.10938 z" />
<glyph unicode="y" horiz-adv-x="48.63281" d="M10.40039 -5.43554 Q14.99023 -5.43555 18.16406 -3.9707 Q21.33789 -2.50586 23.58398 0.57032 Q25.83008 3.64648 27.63672 8.48046 C34.24479 26.46549 42.50489 48.94678 47.46094 62.43555 C45.22705 62.43555 40.75928 62.43555 38.52539 62.43555 C34.85107 51.37598 27.50244 29.25684 23.82812 18.19727 C24.27978 18.68555 25.18311 19.6621 25.63477 20.15039 C25 20.15039 23.73047 20.15039 23.0957 20.15039 C23.54736 19.6621 24.45068 18.68555 24.90234 18.19727 C21.24023 29.25684 13.91602 51.37598 10.25391 62.43555 C7.9834 62.43555 3.44239 62.43555 1.17188 62.43555 C5.88379 49.72803 15.30762 24.31299 20.01953 11.60546 C19.76318 10.88525 19.25049 9.44482 18.99414 8.7246 Q17.48047 4.42773 15.06347 3.01172 Q12.64648 1.5957 8.59375 1.5957 Q7.8125 1.5957 7.10449 1.69336 Q6.39648 1.79102 5.85938 1.88868 C5.85938 -0.42252 5.85938 -3.31152 5.85938 -5.04493 Q6.68945 -5.19141 7.93457 -5.31348 Q9.17969 -5.43555 10.40039 -5.43555 z" />
<glyph unicode="z" horiz-adv-x="46.77734" d="M4.44336 3.10938 C13.91602 3.10938 32.86132 3.10938 42.33398 3.10938 C42.33398 4.86719 42.33398 8.38281 42.33398 10.14062 C35.32714 10.14062 21.31347 10.14062 14.30664 10.14062 C14.30664 10.17724 14.30664 10.25049 14.30664 10.2871 C21.27686 19.63769 35.21729 38.33887 42.1875 47.68945 C42.1875 49.23975 42.1875 52.34033 42.1875 53.89062 C32.76367 53.89062 13.91602 53.89062 4.49219 53.89062 C4.49219 52.13281 4.49219 48.61719 4.49219 46.85938 C11.49903 46.85938 25.5127 46.85938 32.51953 46.85938 C32.51953 46.82276 32.51953 46.74951 32.51953 46.7129 C25.50049 37.32569 11.4624 18.55127 4.44336 9.16407 C4.44336 7.65039 4.44336 4.62305 4.44336 3.10938 z" />
<glyph unicode="" horiz-adv-x="46.77734" d="M4.44336 3.10938 C13.91602 3.10938 32.86132 3.10938 42.33398 3.10938 C42.33398 4.86719 42.33398 8.38281 42.33398 10.14062 C35.32714 10.14062 21.31347 10.14062 14.30664 10.14062 C14.30664 10.17724 14.30664 10.25049 14.30664 10.2871 C21.27686 19.63769 35.21729 38.33887 42.1875 47.68945 C42.1875 49.23975 42.1875 52.34033 42.1875 53.89062 C32.76367 53.89062 13.91602 53.89062 4.49219 53.89062 C4.49219 52.13281 4.49219 48.61719 4.49219 46.85938 C11.49903 46.85938 25.5127 46.85938 32.51953 46.85938 C32.51953 46.82276 32.51953 46.74951 32.51953 46.7129 C25.50049 37.32569 11.4624 18.55127 4.44336 9.16407 C4.44336 7.65039 4.44336 4.62305 4.44336 3.10938 z" />
<glyph unicode="" horiz-adv-x="41.01562" d="M35.88867 25.08203 C35.88867 26.79102 35.88867 30.20898 35.88867 31.91797 C28.19824 31.91797 12.81738 31.91797 5.12695 31.91797 C5.12695 30.20898 5.12695 26.79102 5.12695 25.08203 C12.81738 25.08203 28.19824 25.08203 35.88867 25.08203 z" />
<glyph unicode="" horiz-adv-x="100" d="M100 25.08203 C100 26.79102 100 30.20898 100 31.91797 C75 31.91797 25 31.91797 0 31.91797 C0 30.20898 0 26.79102 0 25.08203 C25 25.08203 75 25.08203 100 25.08203 z" />
<glyph unicode="" horiz-adv-x="48.82812" d="M34.17969 41.708 C32.66602 35.104 29.63867 21.896 28.125 15.292 C30.3833 15.292 34.8999 15.292 37.1582 15.292 C38.12255 21.896 40.05127 35.104 41.01562 41.708 C39.30664 41.708 35.88867 41.708 34.17969 41.708 zM13.86719 41.708 C12.35352 35.104 9.32617 21.896 7.8125 15.292 C10.0586 15.292 14.55079 15.292 16.79688 15.292 C17.83448 21.896 19.90967 35.104 20.94727 41.708 C19.17725 41.708 15.63721 41.708 13.86719 41.708 z" />
<glyph unicode="" horiz-adv-x="48.82812" d="M14.64844 15.292 C16.16211 21.896 19.18945 35.104 20.70312 41.708 C18.44482 41.708 13.92822 41.708 11.66992 41.708 C10.70556 35.104 8.77686 21.896 7.8125 15.292 C9.52148 15.292 12.93946 15.292 14.64844 15.292 zM34.96094 15.292 C36.47461 21.896 39.50195 35.104 41.01562 41.708 C38.76953 41.708 34.27734 41.708 32.03125 41.708 C30.99365 35.104 28.91846 21.896 27.88086 15.292 C29.65088 15.292 33.19092 15.292 34.96094 15.292 z" />
</font>
</svg>
